 <svg  version="1.0" xmlns="http://www.w3.org/2000/svg"  width="300.000000pt" height="202.000000pt" viewBox="0 0 300.000000 202.000000"  preserveAspectRatio="xMidYMid meet">  <g transform="translate(0.000000,202.000000) scale(0.100000,-0.100000)" fill="#ffffff" stroke="none"> <path d="M33 1998 c-20 -22 -13 -50 16 -64 13 -7 34 -25 47 -41 13 -15 23 -23 24 -17 0 5 -5 15 -10 20 -8 8 -6 15 4 23 17 14 36 7 36 -13 0 -17 43 -46 68 -46 11 0 25 -7 32 -15 7 -8 18 -15 24 -15 6 1 -4 14 -23 30 -18 15 -39 26 -45 24 -7 -3 -18 7 -24 21 -13 28 -52 48 -66 34 -13 -12 -46 -11 -46 1 0 6 -6 10 -14 10 -8 0 -17 7 -20 15 -7 20 20 31 38 16 7 -6 16 -8 19 -4 4 3 7 1 7 -5 0 -7 5 -12 12 -12 6 0 1 11 -12 25 -13 14 -19 25 -13 25 5 0 18 -9 27 -19 10 -11 24 -17 32 -14 9 3 14 -1 14 -11 0 -9 6 -16 13 -15 25 3 37 -1 37 -14 0 -7 8 -24 18 -37 l17 -25 5 35 c5 36 32 52 53 31 8 -8 4 -20 -12 -42 -22 -29 -22 -32 -7 -48 16 -15 17 -15 10 3 -5 13 -4 17 4 12 7 -4 12 -15 12 -24 0 -23 153 -146 182 -146 24 0 35 23 23 52 -6 15 -8 14 -16 -5 -11 -30 -31 -29 -46 2 -9 20 -8 28 2 39 11 11 6 21 -36 62 -36 35 -52 45 -60 37 -8 -8 0 -21 30 -48 23 -21 41 -46 41 -57 0 -16 -9 -12 -52 27 -50 45 -69 87 -46 101 5 4 -2 18 -18 35 -20 21 -33 27 -51 23 -17 -5 -23 -2 -23 11 0 12 5 15 16 11 13 -5 14 -4 6 7 -7 8 -10 16 -7 19 3 3 -15 5 -39 5 -25 0 -43 -4 -40 -9 3 -4 9 -6 14 -3 14 9 43 -26 31 -38 -8 -8 -18 -4 -34 11 -15 14 -30 19 -45 15 -16 -4 -22 -1 -22 11 0 22 -66 17 -87 -6z"/> <path d="M284 2008 c-11 -17 194 -208 214 -200 10 3 13 1 8 -7 -10 -15 48 -81 88 -101 17 -8 31 -21 31 -28 0 -15 145 -142 163 -142 8 0 44 -27 81 -60 37 -33 76 -60 87 -60 15 1 12 7 -18 34 -47 41 -48 53 -4 48 38 -4 85 -45 66 -57 -13 -8 -42 14 -34 26 3 5 -2 6 -11 2 -14 -5 -13 -9 9 -29 15 -15 34 -23 48 -20 13 1 31 -2 42 -8 14 -8 20 -8 23 2 3 6 10 9 15 6 7 -4 8 -2 4 4 -3 6 -15 9 -26 7 -12 -2 -18 0 -15 5 5 9 -30 34 -49 35 -5 0 -11 6 -13 13 -3 8 6 12 25 12 22 0 40 -11 71 -46 24 -25 49 -44 57 -42 9 2 -40 56 -125 136 -77 72 -142 132 -145 132 -3 0 -6 -9 -6 -19 0 -11 14 -28 33 -39 39 -25 93 -80 85 -87 -10 -10 -73 10 -74 23 -1 7 -3 14 -4 17 -1 3 -3 11 -4 18 0 6 -12 12 -26 12 -20 0 -25 5 -26 25 0 14 3 32 8 42 6 12 -10 33 -69 90 -43 40 -122 117 -178 170 -98 95 -100 96 -120 79 -22 -20 -45 -17 -45 5 0 8 -4 14 -10 14 -5 0 -10 -10 -10 -22 0 -26 -51 -61 -75 -52 -17 7 -30 48 -20 63 4 7 -4 11 -19 11 -14 0 -28 -5 -32 -12z m254 -48 c3 -8 0 -10 -8 -5 -9 6 -11 4 -6 -4 5 -7 11 -10 14 -6 6 6 82 -64 82 -77 0 -12 -48 -9 -56 4 -5 7 -2 9 7 4 8 -4 -3 9 -25 28 -21 20 -42 33 -47 31 -17 -11 -20 17 -3 30 22 16 36 15 42 -5z m-46 -50 c53 -55 59 -70 27 -70 -23 0 -96 58 -91 73 1 5 -2 6 -7 2 -6 -3 -15 3 -20 14 -11 19 -4 25 33 30 5 0 31 -21 58 -49z m63 -28 c-3 -3 -18 7 -33 23 l-27 28 33 -23 c18 -12 31 -25 27 -28z m121 -49 c23 -27 21 -42 -7 -47 -8 -1 -26 -9 -42 -16 -24 -12 -29 -11 -42 6 -14 18 -14 18 -15 -3 0 -14 -6 -23 -15 -23 -21 0 -31 30 -15 40 11 7 11 12 2 23 -10 11 -9 17 2 27 12 9 20 9 37 -4 21 -14 24 -14 36 4 19 27 31 25 59 -7z m113 -110 l54 -47 -29 -8 c-25 -7 -33 -4 -64 29 -19 21 -39 38 -45 38 -5 0 -11 8 -13 18 -7 33 41 19 97 -30z m-74 4 c4 5 5 3 1 -4 -3 -7 9 -27 30 -47 21 -20 32 -36 26 -36 -7 0 -12 5 -12 10 0 6 -14 10 -31 10 -22 0 -46 12 -77 37 l-44 36 28 12 c25 11 32 10 50 -6 11 -11 24 -16 29 -12z m33 -99 c-3 -7 -17 -13 -33 -13 -16 0 -30 6 -32 13 -3 8 7 12 32 12 25 0 35 -4 33 -12z m115 -52 c20 -24 33 -46 30 -50 -14 -13 -40 -5 -73 24 -32 26 -33 29 -11 25 13 -2 20 -1 17 3 -4 4 -16 8 -27 8 -36 3 -39 4 -39 19 0 10 10 15 34 15 28 0 40 -8 69 -44z m172 -144 c-3 -3 -12 -7 -21 -8 -11 -2 -12 1 -5 10 6 7 7 17 3 22 -4 4 1 2 11 -5 9 -8 15 -16 12 -19z"/> <path d="M455 1890 c8 -9 22 -17 30 -17 13 0 13 2 0 17 -8 9 -22 17 -30 17 -13 0 -13 -2 0 -17z"/> <path d="M750 1725 c7 -8 9 -15 4 -15 -14 0 15 -24 32 -26 12 -2 8 6 -12 27 -29 30 -46 40 -24 14z"/> <path d="M673 1729 c14 -8 15 -14 7 -24 -8 -9 -8 -15 0 -20 5 -3 10 -3 10 1 0 3 8 0 18 -7 14 -11 13 -10 -2 9 -11 12 -16 22 -11 22 4 0 2 7 -5 15 -7 8 -18 15 -24 15 -6 0 -3 -5 7 -11z"/> <path d="M636 1922 c56 -53 201 -193 322 -310 134 -129 223 -208 227 -202 4 7 -3 19 -16 28 -37 25 -89 79 -89 91 0 8 10 6 30 -4 17 -9 28 -20 25 -26 -4 -5 -3 -8 2 -7 12 4 49 -24 55 -42 3 -9 8 -4 15 16 11 31 11 32 -208 250 -202 202 -223 220 -266 229 -41 9 -48 14 -55 43 -7 26 -14 32 -35 32 -27 0 -27 -1 17 -45 33 -34 41 -48 33 -56 -9 -9 -26 0 -67 36 -31 26 -56 51 -56 56 0 5 -8 9 -17 9 -12 -1 18 -36 83 -98z m144 -63 c-14 -24 -31 -24 -53 1 -23 27 -21 39 6 50 30 12 62 -22 47 -51z m97 -43 c39 -36 46 -47 35 -57 -10 -11 -21 -5 -57 31 -42 41 -57 70 -36 70 5 0 31 -20 58 -44z m-22 -38 l30 -33 -40 35 -40 35 34 -37 c19 -21 37 -35 41 -33 3 2 12 0 19 -5 15 -9 7 -44 -8 -38 -25 9 -101 91 -101 109 0 26 23 14 65 -33z m163 -101 c40 -40 53 -67 33 -67 -5 0 -14 7 -21 15 -7 8 -9 15 -5 15 4 0 2 7 -5 15 -6 8 -15 14 -18 13 -14 -4 -52 23 -52 37 0 26 25 16 68 -28z m-6 -57 c-6 9 -9 20 -5 25 5 4 3 5 -4 1 -6 -3 -14 -2 -17 3 -4 5 2 8 11 7 10 -2 17 -6 15 -10 -2 -4 8 -21 22 -37 54 -63 21 -66 -47 -4 -32 29 -45 48 -41 59 5 13 13 9 43 -22 20 -21 30 -31 23 -22z m136 -73 c39 -39 53 -67 35 -67 -12 1 -81 67 -93 90 -19 36 12 23 58 -23z"/> <path d="M690 2003 c0 -32 14 -41 78 -50 62 -10 63 -10 58 12 -4 17 -1 21 16 21 14 -1 24 6 26 17 5 26 -30 21 -58 -8 -13 -14 -30 -25 -38 -25 -18 0 -63 35 -55 44 3 3 -1 6 -10 6 -10 0 -17 -8 -17 -17z"/> <path d="M939 1962 c22 -32 47 -64 56 -72 9 -8 33 -39 52 -69 19 -30 46 -63 58 -73 13 -10 33 -38 45 -63 12 -24 35 -56 51 -69 16 -14 29 -31 29 -40 0 -8 5 -18 10 -21 6 -3 10 -12 9 -18 0 -9 -2 -9 -6 1 -2 6 -14 12 -25 12 -17 0 -18 -3 -8 -15 18 -22 50 -19 50 4 0 11 9 23 21 26 16 5 30 -2 60 -31 l39 -38 -27 -22 -28 -23 -30 30 c-29 27 -63 43 -37 17 8 -8 8 -15 1 -24 -8 -10 -6 -12 12 -9 17 4 36 -7 69 -38 25 -23 39 -35 32 -27 -16 18 -16 40 1 40 21 -1 71 -60 72 -85 1 -14 10 -35 21 -47 l19 -23 -25 21 c-14 11 -60 51 -102 88 -43 38 -78 63 -78 57 0 -7 -7 -7 -25 1 -17 7 -21 14 -14 19 6 4 8 12 4 19 -5 8 -12 2 -21 -20 -17 -39 -17 -40 -3 -40 5 0 7 6 3 13 -4 6 36 -29 87 -79 52 -51 101 -94 109 -97 11 -4 12 -6 1 -6 -8 -1 1 -17 23 -41 20 -22 36 -47 36 -55 0 -19 7 -18 49 4 l34 18 -45 11 c-24 6 -53 21 -63 32 -20 23 -10 27 14 6 19 -17 91 -37 103 -30 5 4 7 18 3 32 -6 25 -6 26 13 9 27 -25 32 -21 21 13 -7 17 -18 30 -28 30 -9 0 -34 17 -54 38 l-38 39 33 1 c24 1 42 -7 65 -30 18 -17 30 -35 27 -40 -7 -10 17 -10 34 0 9 6 -5 24 -48 61 -33 29 -58 56 -55 60 2 5 -8 19 -23 32 l-27 24 24 -27 c42 -48 9 -30 -52 27 -49 47 -61 54 -84 49 -17 -5 -24 -3 -20 3 4 6 -43 84 -104 174 -61 90 -134 199 -162 242 -56 83 -48 79 -124 62 -12 -3 -25 -1 -28 5 -3 5 -15 10 -25 10 -16 0 -14 -8 19 -58z m121 -27 c24 -24 42 -46 39 -48 -2 -3 -15 -10 -29 -17 -23 -12 -27 -10 -68 36 -41 44 -43 49 -26 61 27 20 36 16 84 -32z m140 -185 c0 -4 -11 -12 -24 -18 -21 -9 -28 -6 -67 34 -23 24 -41 45 -38 47 32 28 45 25 87 -16 23 -22 42 -44 42 -47z m70 -95 c29 -30 32 -37 20 -45 -24 -16 -34 -12 -74 29 -33 34 -36 40 -20 44 35 9 40 7 74 -28z m209 -219 c32 -33 33 -34 11 -41 -17 -5 -30 1 -56 26 -24 24 -30 35 -21 41 21 13 32 9 66 -26z m41 -128 c36 -30 52 -58 33 -58 -10 0 -83 72 -83 82 0 14 10 9 50 -24z m-80 -3 c18 -13 36 -22 40 -20 4 3 27 -14 51 -36 42 -40 28 -36 -18 5 -13 11 -23 14 -23 8 0 -6 -13 -10 -29 -9 -16 1 -27 5 -25 8 2 3 -10 16 -26 28 -17 12 -30 26 -30 31 0 17 25 11 60 -15z"/> <path d="M1010 1964 c0 -5 16 -25 35 -44 45 -44 45 -30 0 18 -19 20 -35 32 -35 26z"/> <path d="M1020 1915 c19 -19 36 -35 39 -35 3 0 -10 16 -29 35 -19 19 -36 35 -39 35 -3 0 10 -16 29 -35z"/> <path d="M1102 1803 c-8 -3 -2 -15 19 -34 38 -36 51 -38 19 -4 -29 31 -15 33 19 3 21 -19 20 -17 -3 10 -31 33 -32 34 -54 25z"/> <path d="M1212 1672 c-9 -6 -4 -16 18 -37 16 -16 30 -23 30 -16 0 7 5 9 13 5 6 -4 -1 7 -17 24 -17 18 -30 32 -30 32 -1 0 -7 -4 -14 -8z"/> <path d="M1157 1876 c53 -76 115 -168 139 -205 24 -36 48 -66 53 -66 14 0 221 -177 216 -185 -2 -4 10 -20 28 -36 31 -29 32 -29 8 -1 -26 29 -19 37 9 12 14 -13 22 -13 54 -2 l37 13 -97 107 c-52 59 -98 107 -102 107 -3 0 6 -13 21 -28 31 -32 34 -47 10 -56 -11 -4 -28 4 -50 26 l-33 32 25 13 c29 16 31 25 10 43 -9 8 -12 17 -7 24 5 6 17 33 27 59 l18 48 -24 27 c-44 48 -64 76 -52 69 6 -4 15 -3 18 3 4 6 2 9 -2 8 -5 -2 -28 19 -51 45 -23 27 -42 45 -42 40 0 -11 -75 -43 -101 -43 -23 0 -31 11 95 -130 27 -30 51 -50 53 -44 2 7 13 9 25 6 12 -3 19 -1 16 4 -2 5 -13 27 -23 49 -10 22 -28 62 -41 89 -13 27 -22 51 -20 53 8 8 46 -50 39 -60 -4 -6 -1 -7 7 -2 9 5 11 4 6 -3 -4 -6 5 -34 19 -61 32 -63 31 -79 -1 -87 l-25 -7 25 -26 c14 -15 26 -31 26 -37 0 -5 -35 27 -78 72 -42 44 -64 66 -48 48 l28 -32 -22 -12 c-20 -11 -27 -8 -61 26 -31 30 -36 40 -27 51 6 8 20 12 30 10 10 -3 18 -3 18 0 0 3 -36 45 -81 94 -77 85 -82 88 -102 74 -27 -19 -49 -19 -24 -1 16 12 15 14 -12 12 l-29 -1 95 -139z m68 43 c29 -32 34 -43 24 -50 -27 -17 -46 -9 -79 32 -26 33 -30 43 -19 50 24 15 36 10 74 -32z m158 -47 c16 -23 27 -50 25 -60 -3 -13 -14 -7 -51 30 -51 52 -61 81 -25 76 13 -2 34 -21 51 -46z m-44 -177 c3 -20 65 -85 80 -85 4 0 8 -7 8 -15 0 -16 0 -16 -56 30 -64 53 -91 100 -54 93 10 -2 19 -12 22 -23z m93 -2 c32 -31 35 -48 11 -57 -11 -4 -28 4 -50 26 -38 36 -40 45 -15 51 9 3 19 5 21 6 3 0 18 -11 33 -26z m192 -212 l28 -29 -22 -12 c-20 -11 -26 -8 -54 19 -26 27 -29 33 -16 41 24 15 34 12 64 -19z"/> <path d="M1183 1932 c25 -27 21 -38 -5 -16 -14 11 -11 6 6 -13 16 -18 34 -29 43 -26 11 4 7 14 -18 39 -34 35 -54 48 -26 16z"/> <path d="M1398 1674 c9 -12 25 -22 34 -21 16 1 16 3 -2 22 -29 31 -54 30 -32 -1z"/> <path d="M1583 1474 c16 -20 52 -30 41 -12 -4 5 -9 7 -12 4 -3 -3 -15 2 -26 11 -21 18 -21 18 -3 -3z"/> <path d="M1202 1980 c37 -45 55 -48 116 -20 44 20 48 26 33 49 -8 12 -15 9 -39 -17 -17 -18 -34 -32 -39 -32 -12 0 -57 31 -66 47 -4 7 -15 13 -23 13 -10 0 -5 -12 18 -40z"/> <path d="M1427 2010 c-22 -9 -13 -44 16 -58 15 -7 27 -18 27 -23 0 -6 -6 -7 -12 -3 -10 5 -10 3 0 -7 7 -8 18 -14 25 -14 7 -1 11 -7 9 -14 -1 -7 6 -15 17 -18 11 -3 22 -12 26 -20 4 -13 3 -14 -10 -3 -8 7 -15 9 -15 5 0 -4 -7 -2 -15 5 -29 24 -29 0 -1 -28 28 -27 28 -27 21 -3 -6 18 -4 22 6 15 8 -5 18 -9 23 -9 5 0 11 -6 14 -12 2 -7 -3 -13 -11 -13 -10 0 -14 -9 -13 -25 1 -20 5 -25 21 -21 11 2 68 12 127 22 l107 17 -82 108 c-86 114 -98 122 -152 97 -20 -9 -28 -9 -34 0 -6 11 -69 12 -94 2z m69 -13 c4 -4 -7 -7 -24 -7 -18 0 -32 4 -32 8 0 10 46 9 56 -1z m123 -41 c23 -25 21 -46 -3 -46 -8 0 -19 7 -26 15 -10 12 -10 18 1 33 12 15 12 16 -2 4 -13 -10 -19 -9 -29 3 -22 27 34 18 59 -9z m-73 -17 c25 -26 26 -29 9 -35 -22 -9 -50 8 -49 29 1 9 -1 16 -5 15 -15 -1 -22 3 -17 10 10 16 36 8 62 -19z m118 -62 c-4 -7 -3 -9 1 -4 9 7 55 -30 55 -45 0 -4 -11 -8 -24 -8 -16 0 -34 12 -50 32 -23 30 -24 34 -8 39 22 8 34 1 26 -14z m-46 -26 l22 -30 -21 -6 c-16 -5 -27 0 -45 21 -29 37 -30 44 -1 44 14 0 32 -12 45 -29z"/> <path d="M1575 1861 c-3 -5 -1 -12 5 -16 5 -3 10 -3 10 1 0 3 8 0 18 -7 14 -11 13 -10 -2 9 -22 25 -23 25 -31 13z"/> <path d="M1685 2000 c17 -19 20 -34 5 -25 -6 4 -2 -8 8 -26 10 -18 24 -35 31 -37 10 -3 11 0 5 9 -12 20 -13 59 -1 59 6 0 2 9 -7 19 -10 11 -26 19 -37 18 -16 -1 -17 -3 -4 -17z"/> <path d="M1739 2001 c6 -10 8 -21 5 -24 -3 -3 3 -3 14 0 18 4 19 8 9 24 -16 26 -41 26 -28 0z"/> <path d="M1782 2000 c7 -11 19 -20 27 -20 11 0 10 5 -4 20 -10 11 -22 20 -27 20 -4 0 -3 -9 4 -20z"/> <path d="M1812 2010 c3 -9 15 -14 29 -12 32 4 50 22 21 22 -12 0 -22 -5 -22 -11 0 -8 -6 -7 -17 2 -14 12 -16 12 -11 -1z"/> <path d="M1894 2011 c4 -5 -14 -17 -39 -27 l-45 -17 0 -87 0 -88 -62 -11 c-35 -6 -98 -16 -142 -23 l-78 -12 -19 -44 -19 -44 106 -116 c59 -65 113 -122 121 -128 11 -10 6 -15 -29 -26 -49 -17 -60 -41 -29 -69 27 -26 33 -24 19 7 -16 34 -11 36 119 58 60 10 114 23 120 28 9 7 20 1 40 -23 56 -69 167 -179 180 -179 7 0 13 -8 13 -17 1 -10 15 8 31 41 l30 58 22 -20 c12 -11 28 -17 36 -14 10 3 12 0 8 -10 -8 -22 63 -90 82 -79 7 5 10 14 6 20 -4 7 -1 18 5 26 7 8 10 16 6 16 -3 1 -10 3 -16 4 -5 1 -21 3 -35 4 -27 1 -48 32 -27 39 7 2 12 11 12 21 0 9 5 22 11 28 8 8 8 13 0 17 -6 4 -18 -10 -27 -34 -15 -36 -36 -51 -35 -25 0 6 -6 13 -13 17 -22 12 -56 -4 -72 -33 -15 -30 -44 -40 -44 -15 0 7 -15 21 -34 30 -45 21 -119 105 -113 127 3 12 0 16 -9 12 -8 -3 -20 0 -28 6 -7 6 -15 9 -17 7 -4 -4 -23 -8 -119 -26 l-55 -10 -55 58 c-159 168 -180 196 -171 230 5 18 17 30 37 36 16 5 38 12 49 17 11 4 56 11 100 14 44 4 87 11 96 16 17 9 32 99 17 99 -4 0 -5 15 -1 33 6 31 16 43 68 80 28 20 33 37 9 37 -8 0 -13 -4 -10 -9z"/> <path d="M2423 2013 c-9 -3 -7 -11 7 -25 10 -11 24 -18 32 -15 9 4 8 6 -4 6 -9 1 -18 9 -20 19 -2 11 -8 17 -15 15z"/> <path d="M2560 2005 c0 -15 -43 -31 -70 -27 -13 2 -13 2 0 -7 8 -5 26 -7 40 -4 17 3 33 -1 43 -11 21 -21 44 -22 27 -1 -7 8 -19 15 -26 15 -8 0 -14 5 -14 10 0 6 4 10 9 10 5 0 11 7 15 15 3 9 0 15 -9 15 -8 0 -15 -7 -15 -15z"/> <path d="M2716 2005 c4 -8 7 -15 9 -15 1 0 8 7 15 15 10 13 9 15 -8 15 -15 0 -20 -5 -16 -15z"/> <path d="M2791 2011 c-9 -6 5 -8 37 -5 28 2 54 -1 57 -6 3 -6 -3 -10 -14 -10 -11 0 -22 -4 -25 -9 -3 -5 -26 -6 -51 -3 -38 4 -50 1 -69 -17 -14 -13 -29 -19 -39 -15 -21 8 -21 13 0 36 18 20 8 23 -34 12 -20 -5 -20 -8 -8 -21 21 -20 19 -31 -7 -37 -13 -2 6 -4 41 -2 46 2 67 7 76 19 7 9 22 17 34 17 25 0 29 -20 4 -21 -11 0 -13 -2 -5 -6 7 -3 24 2 37 11 13 9 35 16 49 16 31 0 42 26 16 40 -23 12 -80 13 -99 1z"/> <path d="M2954 2011 c3 -5 15 -7 26 -4 28 7 25 13 -6 13 -14 0 -23 -4 -20 -9z"/> <path d="M878 1983 c-5 -23 90 -145 105 -136 6 4 8 0 4 -10 -4 -11 -2 -14 9 -10 13 5 11 10 -7 29 -12 13 -25 21 -29 19 -10 -6 -33 41 -28 57 6 14 -28 68 -42 68 -5 0 -10 -8 -12 -17z"/> <path d="M2290 1992 c0 -5 16 -13 36 -17 32 -6 35 -9 30 -31 -5 -19 -2 -24 12 -24 10 0 23 -5 30 -12 6 -6 15 -9 18 -5 4 3 -6 12 -20 19 -21 9 -26 17 -22 34 5 17 1 23 -17 27 -12 3 -32 9 -44 12 -14 4 -23 3 -23 -3z"/> <path d="M845 1951 c5 -17 2 -21 -18 -21 -20 0 9 -33 159 -182 131 -130 192 -183 211 -186 27 -3 27 -3 9 17 -20 22 -32 28 -21 12 3 -5 1 -12 -4 -16 -14 -8 -34 34 -35 70 -1 24 -6 31 -26 33 l-25 4 24 -26 c14 -14 22 -28 19 -31 -9 -9 -69 75 -62 87 5 7 11 5 21 -7 7 -11 13 -14 13 -8 0 5 -9 18 -20 28 -19 17 -24 14 -21 -10 1 -5 -17 10 -39 35 -21 25 -39 50 -39 55 0 6 16 -8 36 -30 20 -22 30 -32 24 -23 -7 9 -10 21 -7 27 13 21 -6 42 -35 37 -26 -4 -35 4 -90 72 -65 81 -86 99 -74 63z"/> <path d="M1766 1908 c7 -90 26 -102 22 -14 -2 42 -8 71 -15 73 -8 3 -10 -13 -7 -59z"/> <path d="M2931 1956 c-10 -11 -5 -15 28 -18 38 -3 39 -2 24 14 -19 22 -37 23 -52 4z"/> <path d="M2477 1943 c-9 -3 -15 -8 -12 -13 3 -4 14 -6 25 -3 11 3 27 -1 36 -8 13 -10 17 -10 24 1 5 8 8 15 7 16 -8 5 -65 10 -80 7z"/> <path d="M2860 1915 c7 -8 9 -15 5 -15 -20 0 55 -48 81 -52 30 -4 55 14 54 39 0 5 -5 0 -11 -9 -5 -10 -18 -18 -27 -18 -26 0 -82 38 -82 55 0 8 -7 15 -16 15 -14 0 -14 -3 -4 -15z"/> <path d="M2775 1902 c-21 -7 -34 -42 -15 -42 6 0 10 -8 8 -17 -2 -15 5 -18 37 -19 41 -1 70 -10 137 -45 38 -20 77 -27 45 -8 -9 6 -15 14 -13 18 3 4 -5 7 -17 7 -13 -1 -21 4 -19 12 2 9 -4 11 -18 7 -15 -5 -32 4 -62 29 -23 20 -44 34 -46 31 -3 -3 3 -12 14 -19 17 -13 18 -15 2 -21 -20 -8 -41 2 -33 16 4 5 -1 9 -9 9 -9 0 -16 5 -16 10 0 6 7 10 15 10 8 0 15 7 15 15 0 8 -1 15 -2 14 -2 -1 -12 -4 -23 -7z"/> <path d="M2320 1890 c14 -4 21 -8 16 -9 -5 -1 -3 -7 3 -15 10 -11 10 -20 0 -38 -9 -19 -9 -21 2 -10 7 6 22 12 33 12 18 0 18 1 4 13 -9 6 -18 21 -20 32 -2 14 -12 21 -33 22 -29 2 -29 2 -5 -7z"/> <path d="M2458 1889 c-8 -6 1 -9 25 -9 20 0 37 2 37 4 0 9 -50 12 -62 5z"/> <path d="M2626 1891 c-10 -16 19 -19 45 -5 l24 13 -32 1 c-17 0 -34 -4 -37 -9z"/> <path d="M2267 1883 c-4 -3 1 -12 11 -20 16 -12 15 -13 -8 -11 -14 2 -28 10 -32 18 -5 11 -7 9 -7 -7 -1 -16 5 -23 17 -23 10 0 28 -7 40 -16 12 -8 22 -12 21 -7 -1 4 0 10 1 13 8 23 6 40 -6 40 -8 0 -14 5 -14 10 0 11 -13 13 -23 3z"/> <path d="M2705 1860 c-3 -5 -18 -9 -33 -9 -41 0 -92 -12 -92 -22 0 -5 -9 -9 -21 -9 -15 0 -19 5 -15 15 4 12 -3 15 -29 15 -40 0 -65 -22 -58 -49 4 -16 -2 -21 -32 -27 -41 -7 -115 0 -124 13 -8 11 -91 14 -91 2 0 -10 13 -13 43 -9 10 1 27 -6 37 -15 15 -14 32 -15 94 -10 61 4 81 2 101 -11 34 -22 32 -38 -5 -30 -21 4 -30 2 -30 -8 0 -7 10 -12 21 -12 33 1 35 -22 3 -34 l-27 -11 22 -23 c26 -27 62 -41 55 -21 -3 7 -15 15 -26 18 -35 10 -14 32 33 34 75 4 77 5 75 30 -1 28 -6 29 -35 4 -13 -11 -29 -17 -37 -14 -21 8 -17 21 7 25 18 3 15 7 -20 33 -32 24 -41 36 -41 61 0 18 6 34 13 37 14 5 39 -6 38 -17 -4 -30 4 -47 34 -70 21 -16 32 -21 29 -12 -3 8 -14 18 -24 21 -27 9 -34 36 -10 42 11 3 20 9 20 14 0 26 34 19 67 -12 20 -19 33 -29 29 -22 -12 22 15 25 35 4 23 -25 35 -26 43 -6 3 9 0 15 -7 15 -7 0 -22 6 -32 14 -18 13 -18 15 -2 40 10 14 13 26 8 26 -5 0 -12 -4 -16 -10z m-27 -38 c3 -9 -3 -13 -19 -10 -12 1 -24 9 -27 16 -3 9 3 13 19 10 12 -1 24 -9 27 -16z"/> <path d="M2413 1845 c-7 -8 -13 -19 -13 -25 0 -5 -7 -10 -17 -10 -9 0 -14 -2 -11 -5 9 -9 58 6 52 16 -3 5 2 12 10 15 9 3 16 10 16 15 0 14 -23 10 -37 -6z"/> <path d="M111 1818 c-1 -19 -13 -37 -41 -59 -22 -18 -40 -36 -40 -40 0 -5 13 -15 29 -23 33 -18 91 -73 91 -88 0 -12 -21 -6 -23 7 -3 13 -60 42 -71 37 -5 -3 2 -13 15 -23 34 -26 14 -23 -21 3 -29 21 -29 22 -13 42 10 12 14 18 9 14 -11 -10 -38 11 -30 23 3 5 0 9 -5 9 -19 0 -11 -54 12 -84 15 -18 33 -29 52 -30 17 -1 40 -8 53 -17 21 -15 29 -15 105 4 45 12 74 23 65 25 -11 2 -15 10 -12 20 3 11 -1 9 -12 -5 -17 -24 -61 -33 -48 -10 4 6 -2 4 -13 -5 -19 -17 -43 -24 -43 -13 0 3 7 17 16 31 13 19 19 22 31 13 11 -9 19 -7 38 11 22 20 28 22 51 11 19 -8 25 -17 21 -31 -6 -23 -1 -24 59 -9 31 8 44 16 40 25 -3 8 1 14 8 14 8 0 16 -5 18 -12 3 -7 12 -9 22 -5 17 7 16 9 -5 26 -13 11 -25 15 -27 10 -6 -16 -22 -10 -22 9 0 11 -9 27 -20 37 -11 10 -20 13 -20 7 0 -7 -9 -12 -20 -12 -13 0 -20 -7 -20 -19 0 -17 -6 -20 -45 -17 -29 1 -46 -2 -49 -11 -3 -7 -15 -13 -26 -13 -12 0 -19 4 -16 9 3 5 -2 15 -11 22 -12 10 -14 10 -9 2 11 -19 0 -16 -43 13 -29 18 -37 30 -34 45 3 10 8 19 10 19 3 0 27 -19 55 -41 27 -23 52 -38 56 -34 4 4 -10 22 -32 39 -32 28 -36 34 -21 40 20 7 118 -51 109 -65 -5 -9 -15 -6 -44 15 -9 6 -6 1 7 -11 19 -18 26 -20 46 -10 18 8 21 14 13 23 -6 7 -13 12 -16 12 -21 -1 -30 4 -30 18 0 8 4 12 10 9 6 -3 7 1 4 10 -7 18 -39 28 -80 24 -53 -4 -72 1 -77 19 -3 10 -5 7 -6 -10z m29 -115 c45 -34 48 -39 30 -47 -21 -9 -54 9 -45 24 3 5 0 12 -6 16 -8 5 -9 3 -4 -6 5 -8 3 -11 -6 -8 -8 3 -14 10 -14 16 0 5 -4 14 -9 19 -5 5 -6 3 -2 -4 10 -17 -9 -17 -23 0 -12 15 -5 27 15 27 7 0 36 -17 64 -37z m252 -28 c-4 -36 -7 -39 -27 -32 -15 6 -21 48 -8 61 17 17 38 0 35 -29z"/> <path d="M1310 1795 c19 -19 36 -35 38 -35 8 0 -53 69 -62 69 -6 1 5 -15 24 -34z"/> <path d="M30 1795 c-5 -14 -14 -25 -20 -25 -5 0 -10 -8 -10 -17 0 -13 8 -9 30 17 31 37 36 50 20 50 -6 0 -15 -11 -20 -25z"/> <path d="M2114 1810 c-12 -5 -25 -15 -29 -22 -6 -10 -5 -11 6 0 7 6 21 12 31 12 10 0 18 5 18 10 0 6 -1 10 -2 9 -2 0 -13 -4 -24 -9z"/> <path d="M329 1787 c6 -8 8 -17 4 -20 -3 -4 2 -7 12 -7 17 0 17 1 0 20 -20 22 -34 28 -16 7z"/> <path d="M2805 1789 l-30 -7 28 -1 c24 -1 41 -21 18 -21 -6 0 -9 -9 -8 -20 1 -11 6 -19 12 -17 5 2 9 11 7 21 -2 11 4 16 22 16 14 0 28 5 31 10 3 6 -2 10 -12 10 -11 0 -23 4 -28 8 -6 5 -23 5 -40 1z"/> <path d="M1980 1767 c0 -7 14 -12 30 -13 38 -1 38 1 0 15 -22 7 -30 7 -30 -2z"/> <path d="M2705 1740 c36 -24 46 -25 38 -4 -3 8 -12 13 -19 10 -7 -3 -16 -1 -19 4 -4 6 -12 10 -18 10 -7 0 2 -9 18 -20z"/> <path d="M2615 1740 c-4 -6 5 -10 20 -10 15 0 24 4 20 10 -3 6 -12 10 -20 10 -8 0 -17 -4 -20 -10z"/> <path d="M2924 1739 c-4 -6 -21 -9 -43 -5 l-36 5 33 -14 c17 -8 32 -20 32 -25 0 -17 -31 -24 -51 -12 -13 9 -24 8 -44 -2 -15 -8 -22 -17 -16 -20 6 -4 19 -3 29 3 11 6 24 6 32 1 10 -6 23 -4 38 6 24 16 52 13 52 -6 0 -6 -14 -17 -31 -24 -28 -12 -29 -14 -11 -18 12 -3 32 0 46 7 26 14 43 5 31 -15 -3 -5 -1 -10 4 -10 23 0 10 34 -25 65 -31 29 -34 36 -25 54 12 22 -2 31 -15 10z"/> <path d="M2967 1733 c4 -10 13 -24 20 -31 11 -11 13 -9 13 11 0 14 -7 28 -16 31 -23 9 -24 8 -17 -11z"/> <path d="M2360 1716 c0 -9 8 -12 25 -8 37 7 41 22 6 22 -20 0 -31 -5 -31 -14z"/> <path d="M530 1696 c-5 -15 -10 -31 -10 -36 0 -4 66 -63 146 -131 81 -68 141 -125 135 -127 -6 -2 -9 -8 -5 -13 3 -5 0 -9 -6 -9 -7 0 -10 6 -7 14 9 23 -117 126 -144 119 -19 -5 -21 -3 -17 15 7 24 -10 41 -22 23 -4 -7 -21 -11 -41 -9 -26 3 -35 9 -37 27 -2 15 0 21 7 17 6 -4 18 -3 27 2 13 7 10 13 -18 34 l-33 24 -106 -25 -106 -26 32 -30 c33 -31 39 -35 53 -35 17 -1 -45 -29 -65 -30 -12 0 -42 16 -67 35 -26 19 -52 35 -59 35 -6 0 -1 -9 13 -20 14 -11 20 -20 15 -20 -6 0 -16 5 -22 11 -8 8 -16 8 -30 0 -10 -6 -16 -11 -13 -11 31 -7 59 -11 80 -13 14 -1 25 -9 25 -17 1 -8 7 -14 14 -12 7 1 26 -8 43 -20 22 -15 33 -18 36 -10 7 21 36 12 77 -24 37 -33 38 -35 14 -31 -14 2 -31 -2 -37 -10 -8 -8 -9 -13 -2 -13 5 0 9 -3 9 -7 -3 -21 3 -33 16 -33 24 0 30 -29 9 -45 -11 -7 -16 -16 -13 -20 4 -3 14 1 22 10 22 21 28 19 63 -18 30 -33 54 -38 54 -11 0 8 -6 11 -15 8 -9 -4 -15 0 -15 10 0 9 -20 29 -45 44 -25 16 -42 32 -38 37 5 4 2 5 -6 0 -10 -6 -12 -4 -6 5 6 9 4 12 -7 8 -9 -4 -15 0 -15 8 0 20 4 18 61 -25 28 -21 58 -41 66 -45 18 -9 -17 23 -51 46 -21 14 -22 17 -7 23 12 5 30 -3 55 -24 42 -35 50 -37 50 -16 0 8 -3 12 -6 10 -4 -2 -18 5 -31 16 l-25 19 23 0 c23 0 101 -48 102 -62 0 -4 -18 -6 -40 -5 -48 2 -58 -7 -37 -30 12 -14 13 -23 5 -37 -8 -14 -7 -21 3 -27 22 -13 35 -11 16 4 -11 8 -14 17 -8 26 13 21 41 -3 34 -30 -4 -13 4 -28 21 -44 33 -31 38 -31 34 -3 -2 12 -12 25 -23 28 -11 3 -21 11 -23 18 -3 18 7 15 45 -14 18 -14 33 -20 33 -15 0 18 24 12 65 -16 31 -21 36 -28 22 -31 -10 -2 -24 0 -30 5 -7 4 1 -4 18 -19 16 -15 32 -23 33 -17 5 13 25 11 50 -7 24 -16 21 -37 -3 -28 -8 4 -13 9 -10 13 2 4 -2 8 -10 8 -12 0 -12 -4 2 -20 18 -19 17 -20 -7 -7 -40 21 -110 81 -105 90 3 5 0 12 -6 16 -7 4 -9 3 -6 -3 4 -6 -3 -13 -16 -17 -20 -5 -17 -9 27 -35 55 -32 69 -51 60 -76 -5 -13 -17 -16 -55 -13 -34 2 -49 -1 -49 -9 0 -7 -7 -13 -15 -13 -8 0 -15 -4 -15 -10 0 -5 -9 -19 -21 -31 -11 -11 -18 -26 -16 -33 3 -7 -71 -89 -168 -186 -96 -96 -171 -178 -168 -183 3 -6 2 -7 -4 -4 -6 4 -26 -10 -45 -31 -19 -20 -47 -47 -62 -59 -14 -13 -26 -30 -26 -39 0 -8 -4 -13 -8 -10 -15 9 -51 -23 -49 -44 1 -19 2 -19 23 1 14 13 30 19 41 15 21 -6 51 8 35 18 -17 10 -2 42 36 79 36 35 92 59 92 40 0 -12 -82 -79 -93 -75 -5 1 -6 -1 -3 -6 3 -5 1 -23 -4 -41 -8 -30 -7 -31 21 -31 19 0 29 -5 29 -15 0 -8 -4 -15 -9 -15 -5 0 -17 -3 -26 -6 -9 -4 -15 -3 -14 2 3 20 -2 26 -15 15 -11 -9 -17 -8 -29 4 -14 13 -19 11 -45 -21 -18 -22 -41 -38 -56 -39 -29 -4 -33 6 -11 25 11 9 13 16 5 24 -7 7 -19 1 -40 -19 -16 -16 -29 -30 -27 -31 1 -1 56 -11 122 -22 123 -21 234 -35 203 -26 -25 8 -23 13 23 60 31 31 46 40 65 36 27 -5 43 -22 21 -22 -17 0 -90 -77 -79 -83 4 -3 30 -8 57 -11 l50 -7 108 130 c59 72 107 133 107 135 0 3 -9 4 -20 3 -11 -1 -20 -7 -20 -14 0 -7 -4 -13 -10 -13 -5 0 -10 -9 -10 -20 0 -10 -9 -24 -20 -30 -17 -9 -22 -7 -32 15 -9 19 -9 28 0 37 9 9 12 8 12 -6 0 -15 3 -16 15 -6 21 18 19 29 -10 42 -29 13 -34 32 -6 23 21 -6 71 13 71 27 0 5 4 7 9 4 5 -3 12 9 15 27 6 28 9 30 19 16 8 -10 19 -14 31 -9 14 4 16 9 8 14 -7 4 -12 16 -12 28 0 15 5 19 19 15 12 -3 18 1 17 11 0 9 7 18 18 20 16 3 18 0 12 -22 -7 -29 11 -37 21 -9 4 9 18 27 32 39 25 22 25 24 9 41 -17 17 -18 16 -18 -11 0 -21 -4 -27 -17 -24 -23 4 -28 32 -8 51 8 9 15 21 15 27 0 7 6 10 14 7 8 -3 20 1 26 8 7 8 17 12 24 8 21 -13 35 -11 52 8 16 18 16 19 1 13 -12 -4 -17 -1 -18 12 0 16 -2 16 -11 -3 -6 -13 -15 -23 -20 -23 -13 0 -10 9 12 32 10 12 17 26 13 31 -3 6 -1 7 5 3 5 -3 20 10 32 29 25 41 35 44 44 13 6 -22 9 -20 51 27 l44 50 -27 3 c-15 2 -34 5 -42 8 -8 3 -80 5 -160 4 l-144 -1 -46 -36 -45 -36 39 41 c36 37 44 41 95 44 49 3 56 6 55 24 0 19 4 20 75 17 l76 -4 -39 28 c-29 21 -34 29 -22 31 18 4 86 -37 86 -50 0 -5 25 -8 55 -8 l55 0 -32 30 c-29 26 -30 29 -13 30 26 0 67 -28 59 -41 -3 -5 -2 -9 3 -8 32 6 53 -3 53 -22 0 -18 5 -20 43 -17 l42 3 3 54 c3 47 0 57 -24 82 -25 26 -25 34 -1 30 12 -2 8 6 -10 20 -10 8 -14 9 -10 2 4 -6 3 -14 -2 -17 -5 -4 -60 34 -121 84 -62 50 -122 90 -134 90 -17 0 -18 2 -6 10 12 7 11 10 -5 16 -11 4 -50 34 -87 66 -36 32 -69 55 -72 50 -3 -5 -24 8 -46 30 -23 21 -46 35 -52 32 -6 -4 -8 -2 -4 4 10 17 -10 24 -23 8 -10 -11 -17 -12 -34 -3 -38 20 -97 71 -97 85 0 19 9 15 57 -24 30 -25 48 -33 55 -26 10 10 -26 42 -49 42 -7 0 -13 6 -13 13 0 8 -9 22 -20 32 -19 17 -20 17 -30 -9z m-89 -87 c11 -6 17 -15 12 -22 -4 -7 0 -7 10 2 23 18 45 8 45 -23 0 -18 -6 -26 -19 -26 -10 0 -21 5 -25 12 -4 6 -3 8 4 4 6 -3 13 -2 17 3 3 6 -4 8 -16 6 -13 -3 -33 5 -50 20 -25 21 -26 28 -1 34 2 1 12 -4 23 -10z m-34 -40 c38 -27 43 -33 29 -41 -23 -13 -77 26 -70 50 5 13 4 14 -4 3 -10 -14 -32 -7 -32 10 0 18 32 9 77 -22z m288 -20 c4 -6 13 -8 21 -5 8 3 13 0 11 -7 -1 -7 4 -11 11 -9 8 1 11 -2 8 -7 -3 -5 1 -14 9 -21 8 -7 15 -19 15 -27 0 -18 -99 56 -100 75 0 15 16 16 25 1z m-165 -30 c0 -6 -9 -13 -21 -16 -18 -5 -15 -9 21 -30 23 -14 37 -29 34 -35 -4 -7 -2 -8 4 -4 7 4 12 2 12 -3 0 -15 -37 -14 -46 1 -5 7 -2 8 7 3 8 -5 11 -4 6 1 -5 5 -16 9 -25 9 -9 0 -17 7 -17 15 0 10 -8 14 -23 12 -12 -2 -22 2 -22 7 0 6 5 11 10 11 6 0 10 6 10 14 0 14 14 24 38 25 6 1 12 -4 12 -10z m-112 -8 c10 -6 10 -10 -3 -21 -18 -15 -42 0 -31 19 8 13 16 14 34 2z m195 -37 c26 -19 45 -39 42 -44 -9 -15 -31 -12 -46 7 -12 15 -12 16 1 8 9 -5 12 -4 7 1 -5 5 -16 9 -25 9 -9 0 -16 6 -14 13 1 8 -1 11 -6 8 -13 -8 -35 11 -28 23 10 16 16 14 69 -25z m194 11 c8 -9 13 -19 10 -22 -6 -5 -37 21 -37 31 0 10 11 6 27 -9z m-328 -32 c44 -31 51 -43 23 -43 -21 0 -92 47 -92 60 0 18 29 10 69 -17z m237 -7 c33 -29 37 -36 25 -48 -10 -9 -12 -9 -7 0 7 11 -16 17 -51 13 -8 -1 -10 5 -7 14 4 9 -2 25 -11 35 -32 35 7 24 51 -14z m148 -18 c1 -8 10 -23 20 -33 10 -10 15 -26 13 -37 -4 -15 34 -52 174 -169 159 -133 207 -177 167 -153 -36 22 -428 357 -423 362 3 3 19 -7 35 -23 16 -16 32 -26 35 -23 3 2 -13 19 -35 37 -22 17 -40 38 -40 46 0 18 12 19 29 3 10 -11 11 -9 5 7 -5 15 -4 17 5 9 7 -6 13 -18 15 -26z m-196 -61 c17 -13 28 -28 24 -32 -4 -5 -2 -5 5 -1 6 3 14 2 17 -3 7 -11 -22 -23 -35 -15 -5 3 -7 10 -4 15 3 5 0 7 -7 4 -12 -4 -68 37 -68 50 0 13 39 3 68 -18z m89 -9 c39 -28 42 -33 24 -36 -17 -3 -111 52 -111 65 0 14 50 -3 87 -29z m89 -29 c4 -8 1 -8 -14 0 -12 6 -24 16 -28 22 -4 8 -1 8 14 0 12 -6 24 -16 28 -22z m179 -57 c10 -27 -3 -25 -44 9 -23 18 -41 41 -41 51 0 16 5 15 39 -13 22 -17 42 -38 46 -47z m-149 -6 c34 -26 40 -35 28 -40 -18 -7 -107 51 -99 65 10 15 24 10 71 -25z m-148 -7 c23 -17 39 -35 36 -40 -6 -10 -47 12 -92 48 -25 20 -25 22 -6 23 11 0 39 -14 62 -31z m78 -1 c46 -33 56 -50 26 -45 -16 2 -112 66 -112 74 0 14 50 -3 86 -29z m-136 -8 c29 -24 32 -29 15 -29 -11 0 -36 13 -55 29 -28 25 -31 30 -15 30 11 0 36 -14 55 -30z m433 -34 c34 -31 48 -57 30 -56 -14 1 -69 54 -76 73 -10 26 5 21 46 -17z m-261 -42 c21 -15 35 -31 32 -35 -6 -10 -78 27 -96 48 -19 24 24 15 64 -13z m79 -1 c41 -30 49 -43 23 -43 -17 0 -93 51 -94 63 0 15 33 6 71 -20z m75 0 c31 -23 33 -28 19 -36 -12 -7 -22 -4 -34 8 -12 14 -13 16 -1 10 9 -5 12 -4 7 1 -5 5 -16 9 -25 9 -9 0 -16 6 -14 13 1 8 -2 11 -7 8 -5 -4 -12 -2 -16 4 -13 21 38 9 71 -17z m246 -84 c4 -11 4 -19 0 -19 -15 1 -72 61 -72 76 0 12 7 10 33 -11 17 -15 35 -36 39 -46z m-207 -4 l30 -24 -25 -1 c-14 0 -38 11 -55 25 l-30 24 25 1 c14 0 39 -11 55 -25z m-120 -15 c3 -5 -3 -10 -15 -10 -12 0 -18 5 -15 10 3 6 10 10 15 10 5 0 12 -4 15 -10z m-190 -130 c-28 -29 -47 -40 -69 -40 l-30 0 33 34 c21 21 46 37 65 39 17 2 33 5 36 5 2 1 -14 -16 -35 -38z m310 30 c3 -6 -4 -10 -18 -10 -13 0 -36 -13 -52 -30 -26 -28 -75 -42 -75 -22 0 15 36 43 44 35 4 -5 6 -1 4 7 -2 10 8 16 32 21 54 10 58 10 65 -1z m-237 -35 c-20 -19 -46 -35 -57 -35 -27 0 -26 4 6 40 18 21 35 30 57 30 l31 0 -37 -35z m82 0 c-20 -20 -44 -35 -57 -35 l-24 0 27 35 c20 27 34 35 57 35 l31 0 -34 -35z m-240 -72 c0 -9 -71 -73 -80 -73 -21 0 -16 18 12 47 29 30 68 45 68 26z m90 -4 c0 -6 -7 -8 -17 -5 -10 4 -14 4 -10 0 12 -12 -45 -64 -70 -64 -13 0 -23 2 -23 5 0 3 17 20 38 40 36 33 82 47 82 24z m80 3 c0 -5 -12 -19 -26 -33 -14 -13 -30 -34 -35 -46 -9 -23 -29 -32 -29 -13 0 6 5 10 10 10 6 0 10 5 10 11 0 6 -9 9 -20 6 -29 -8 -24 9 13 43 30 27 77 41 77 22z m80 -4 c0 -21 -53 -68 -77 -68 -29 0 -29 5 5 45 26 33 72 47 72 23z m-200 -78 c0 -5 -9 -10 -21 -10 -11 0 -17 5 -14 10 3 6 13 10 21 10 8 0 14 -4 14 -10z m-185 -50 c-22 -22 -45 -40 -51 -40 -7 0 -14 -5 -16 -12 -2 -6 -10 -8 -16 -4 -16 10 64 85 91 86 9 0 17 5 17 12 0 6 3 8 7 4 4 -3 -11 -24 -32 -46z m80 -10 c-37 -37 -85 -54 -85 -30 0 6 11 8 25 6 15 -3 23 -1 20 5 -4 5 -12 6 -18 3 -7 -4 1 7 17 24 18 20 40 32 55 32 24 0 24 -1 -14 -40z m112 28 c-2 -7 -13 -12 -25 -12 -12 1 -19 -3 -16 -7 3 -5 11 -6 17 -3 7 4 -2 -8 -20 -26 -22 -23 -37 -31 -49 -26 -15 6 -12 12 21 46 37 38 82 55 72 28z m88 -5 c-4 -10 -8 -25 -9 -33 -2 -8 -13 -16 -24 -18 -12 -2 -22 -8 -22 -13 0 -5 -12 -9 -26 -9 -14 0 -24 5 -22 11 2 6 6 9 10 7 3 -2 17 7 30 20 14 12 27 20 30 16 3 -3 9 -1 12 4 10 16 -21 7 -43 -12 -14 -13 -21 -14 -27 -5 -4 7 -3 10 3 6 6 -4 21 5 33 18 28 30 66 35 55 8z m-282 -91 c4 9 6 8 6 -3 1 -21 -40 -57 -61 -54 -9 2 -23 -3 -29 -12 -10 -11 -10 -13 0 -11 16 4 38 -28 27 -39 -4 -4 -12 0 -17 10 -6 9 -17 17 -24 17 -23 0 -18 11 27 57 30 31 45 40 54 32 8 -7 14 -6 17 3z m-113 -47 c-45 -46 -63 -54 -76 -33 -11 17 64 78 95 78 24 0 23 -2 -19 -45z m214 30 c-4 -9 -15 -13 -29 -11 -28 5 -64 -27 -44 -40 8 -5 10 -3 4 6 -6 9 -4 11 5 5 9 -6 11 -4 5 5 -6 9 -4 11 5 5 8 -5 11 -4 7 2 -3 5 0 10 8 10 21 0 19 -6 -10 -29 -18 -14 -24 -26 -20 -42 2 -11 2 -15 -1 -8 -3 6 -17 12 -30 12 -13 0 -24 4 -24 9 0 22 66 80 95 84 17 2 31 5 32 6 1 0 0 -6 -3 -14z m80 -2 c3 -4 -10 -24 -31 -45 -27 -27 -45 -38 -67 -38 l-30 0 44 45 c41 42 68 54 84 38z m-217 -69 c2 -16 1 -16 -3 -1 -3 9 -9 15 -14 12 -5 -3 -11 -1 -14 4 -4 5 2 8 11 7 10 -2 19 -11 20 -22z m-79 -22 c2 -7 -3 -12 -12 -12 -9 0 -16 7 -16 16 0 17 22 14 28 -4z m2 -29 c0 -4 -12 -19 -26 -34 -25 -26 -25 -28 -6 -38 16 -8 24 -5 48 22 l29 32 -32 -29 c-40 -36 -44 -20 -5 17 30 29 56 35 68 15 9 -14 -75 -88 -94 -81 -7 3 -19 -3 -26 -13 -12 -16 -18 -17 -55 -6 -22 7 -41 15 -41 18 0 3 21 28 47 55 30 31 55 49 70 49 12 0 23 -3 23 -7z m120 -3 c0 -6 6 -10 13 -9 28 3 48 -2 42 -11 -4 -6 -11 -8 -16 -4 -5 3 -8 2 -7 -3 1 -4 -3 -18 -10 -30 -9 -16 -9 -23 -2 -23 6 0 8 -5 4 -11 -4 -8 -9 -7 -15 2 -6 11 -11 11 -21 1 -9 -9 -9 -12 0 -12 7 0 12 -7 12 -15 0 -8 -5 -15 -11 -15 -6 0 -17 7 -25 15 -9 8 -20 15 -25 15 -16 0 -10 -26 10 -44 19 -17 21 -17 50 0 16 10 32 26 34 36 3 10 10 18 16 18 14 0 14 -27 1 -35 -6 -4 -8 -10 -5 -15 3 -5 -6 -20 -20 -34 -21 -21 -25 -22 -26 -8 0 9 -6 2 -13 -16 -6 -18 -15 -30 -18 -26 -4 4 -12 -6 -18 -21 -7 -19 -15 -25 -26 -21 -9 3 -22 6 -30 6 -8 0 -14 4 -14 9 0 4 11 6 25 3 20 -3 25 0 25 17 0 11 5 21 10 21 18 0 10 40 -10 52 -11 7 -20 19 -20 27 0 12 -3 12 -12 3 -7 -7 -18 -12 -25 -12 -20 0 -15 21 6 27 11 3 22 12 25 20 3 8 10 12 14 9 5 -3 26 13 47 34 22 22 34 40 27 40 -7 0 -12 5 -12 10 0 6 5 10 10 10 6 0 10 -5 10 -10z m-183 -178 c-18 -15 -38 -35 -45 -44 -15 -20 -47 -24 -58 -7 -8 14 63 87 90 91 41 7 47 -12 13 -40z m-110 9 c2 -28 -38 -62 -65 -54 l-23 6 27 28 c22 23 30 26 41 17 8 -6 13 -7 12 -2 -2 11 0 24 4 24 1 0 3 -9 4 -19z"/> <path d="M870 945 c-7 -8 -16 -13 -20 -10 -4 3 -14 -3 -21 -13 -12 -15 -12 -16 2 -5 9 7 18 11 21 8 3 -3 13 4 23 15 10 11 16 20 13 20 -3 0 -11 -7 -18 -15z"/> <path d="M585 740 c-4 -6 -11 -8 -16 -4 -5 3 -8 0 -7 -8 2 -7 -3 -12 -10 -10 -8 1 -11 -2 -7 -9 5 -7 15 -3 31 12 13 12 24 24 24 26 0 7 -9 3 -15 -7z"/> <path d="M625 711 c-15 -17 -15 -19 -1 -17 22 3 40 22 28 30 -5 3 -17 -3 -27 -13z"/> <path d="M354 608 l-29 -33 33 29 c30 28 37 36 29 36 -2 0 -16 -15 -33 -32z"/> <path d="M313 476 c-16 -17 -21 -25 -12 -18 9 6 18 10 21 7 2 -3 14 6 26 18 17 18 19 24 7 24 -8 0 -27 -14 -42 -31z"/> <path d="M320 440 c0 -5 -9 -10 -20 -10 -11 0 -20 -5 -20 -11 0 -7 12 -8 33 -4 38 9 41 11 32 24 -8 14 -25 14 -25 1z"/> <path d="M489 453 l-34 -38 38 34 c34 33 42 41 34 41 -2 0 -19 -17 -38 -37z"/> <path d="M264 319 c-14 -15 -21 -29 -16 -33 5 -3 23 10 41 28 21 22 27 33 17 33 -9 0 -27 -13 -42 -28z"/> <path d="M2272 1703 c25 -3 41 -12 52 -28 9 -14 34 -34 56 -45 39 -20 44 -27 41 -62 -3 -22 22 -23 39 -3 11 13 9 20 -10 40 -13 14 -43 34 -67 46 -25 12 -50 30 -56 40 -9 14 -22 19 -52 17 l-40 -1 37 -4z"/> <path d="M2400 1675 c7 -8 16 -15 20 -15 4 0 10 7 14 15 4 11 -2 15 -21 15 -21 0 -24 -2 -13 -15z"/> <path d="M2632 1653 c12 -15 60 -17 74 -4 5 5 18 11 29 13 11 3 -10 4 -47 4 -52 -1 -64 -4 -56 -13z"/> <path d="M2736 1634 c-17 -12 -17 -14 -4 -14 9 0 20 5 23 11 11 17 2 18 -19 3z"/> <path d="M2855 1619 c-4 -5 -17 -9 -30 -7 -22 3 -55 -17 -55 -32 0 -10 40 -1 57 12 12 10 88 2 108 -11 13 -8 64 -8 59 0 -2 4 -29 10 -59 14 -38 4 -55 11 -55 21 0 16 -16 19 -25 3z"/> <path d="M2650 1590 c-21 -21 -46 -28 -35 -10 3 6 2 10 -4 10 -5 0 -13 -5 -16 -10 -4 -6 -22 -9 -41 -7 -32 4 -48 -7 -22 -15 7 -3 9 -12 5 -22 -6 -14 -14 -17 -37 -12 -38 7 -39 -6 -2 -20 32 -12 53 -3 65 29 3 9 13 17 21 17 8 0 20 -8 25 -17 10 -17 10 -17 11 0 0 15 11 21 32 18 4 0 34 -2 66 -5 33 -2 68 -9 80 -15 11 -6 31 -11 44 -10 13 0 17 3 11 6 -18 7 -16 33 2 33 8 0 15 -4 15 -10 0 -5 7 -10 16 -10 9 0 14 -6 11 -12 -2 -7 -9 -12 -15 -11 -6 2 -9 -4 -6 -11 8 -21 -14 -56 -34 -56 -14 0 -15 -2 -2 -9 10 -7 18 -4 27 9 11 16 23 18 73 14 36 -2 60 0 60 6 0 5 -6 7 -14 4 -8 -3 -17 -1 -20 4 -3 5 -16 7 -29 5 -13 -3 -29 2 -36 10 -16 21 2 31 30 17 29 -16 33 -7 6 17 -34 31 -84 48 -101 34 -14 -12 -126 -4 -126 8 0 4 12 12 28 19 l27 11 -32 -5 c-17 -3 -34 0 -38 5 -9 16 -23 13 -45 -9z m33 -15 c1 -5 -6 -11 -15 -13 -11 -2 -18 3 -18 13 0 17 30 18 33 0z"/> <path d="M1486 1591 c-7 -10 20 -34 41 -37 11 -2 8 5 -8 22 -25 27 -26 27 -33 15z"/> <path d="M23 1582 c-15 -2 -23 -10 -23 -23 0 -19 1 -19 16 -5 20 20 38 20 72 -1 27 -17 27 -17 9 3 -9 11 -15 23 -13 25 6 5 -32 6 -61 1z"/> <path d="M235 1580 c-12 -5 -14 -9 -6 -9 8 -1 29 -13 48 -27 19 -14 37 -23 41 -19 4 4 -1 12 -10 19 -10 7 -14 16 -10 20 4 4 0 6 -8 4 -8 -1 -14 3 -12 10 2 14 -14 15 -43 2z"/> <path d="M1370 1561 c6 -12 17 -21 25 -21 21 0 19 5 -11 25 -25 16 -25 16 -14 -4z"/> <path d="M2976 1545 c-3 -9 0 -15 9 -15 8 0 15 7 15 15 0 8 -4 15 -9 15 -5 0 -11 -7 -15 -15z"/> <path d="M1280 1541 c0 -4 11 -18 25 -31 17 -16 29 -20 35 -14 7 7 4 17 -10 29 -22 20 -50 29 -50 16z"/> <path d="M2307 1533 c-16 -4 -15 -6 5 -23 25 -20 19 -33 -19 -45 -17 -5 -23 -2 -23 10 0 9 5 13 10 10 6 -3 10 -2 10 4 0 5 -4 13 -10 16 -5 3 -10 1 -10 -5 0 -6 -4 -9 -9 -6 -11 7 -9 -13 2 -31 4 -6 2 -15 -5 -20 -15 -10 -17 -35 -3 -45 17 -13 23 -9 18 10 -2 10 2 24 11 31 13 11 19 9 40 -12 17 -17 32 -24 46 -20 28 7 25 23 -4 23 -13 0 -29 6 -35 14 -9 10 -4 19 21 40 17 14 38 26 45 26 13 0 19 20 6 20 -5 0 -18 3 -31 6 -18 5 -21 3 -16 -10 4 -12 0 -16 -15 -16 -23 0 -29 15 -8 23 15 7 -2 6 -26 0z"/> <path d="M46 1515 c-11 -8 -17 -18 -13 -21 4 -4 14 -1 23 7 13 11 18 11 21 2 5 -13 33 -18 33 -7 0 7 -32 33 -40 33 -3 0 -14 -6 -24 -14z"/> <path d="M143 1506 c4 -10 7 -20 7 -22 0 -2 8 -4 19 -4 10 0 24 -6 30 -14 12 -15 91 -20 91 -6 0 4 -9 6 -20 3 -11 -3 -20 0 -20 6 0 6 -7 11 -16 11 -9 0 -12 -5 -8 -12 4 -6 -8 0 -27 14 -54 40 -63 44 -56 24z"/> <path d="M2593 1503 c-6 -2 -9 -12 -6 -22 6 -25 -25 -36 -47 -16 -12 11 -20 13 -25 6 -3 -7 -18 -8 -33 -4 -25 6 -26 5 -12 -12 8 -9 13 -30 12 -46 -2 -16 1 -29 7 -29 6 0 11 6 12 13 1 6 2 23 2 37 2 32 36 40 44 11 7 -26 18 -27 40 -1 11 12 36 22 65 26 26 4 48 11 48 17 0 5 -14 7 -35 4 -22 -4 -40 -1 -48 7 -6 7 -17 11 -24 9z"/> <path d="M2207 1460 c-9 -11 -12 -20 -7 -20 6 0 10 -5 10 -11 0 -7 -12 -10 -28 -7 -25 4 -28 1 -24 -19 2 -13 9 -23 14 -23 6 0 7 7 4 16 -3 8 -2 12 4 9 18 -11 43 12 45 44 2 17 2 31 1 31 -1 0 -9 -9 -19 -20z"/> <path d="M140 1465 c0 -18 19 -40 26 -32 4 4 0 15 -9 24 -9 10 -17 13 -17 8z"/> <path d="M37 1430 c-4 -15 -11 -21 -21 -17 -9 4 -16 2 -16 -3 0 -14 22 -12 42 3 10 8 13 18 9 26 -6 9 -10 6 -14 -9z"/> <path d="M360 1435 c15 -18 -1 -20 -18 -3 -6 6 -14 9 -17 7 -2 -3 10 -13 27 -23 17 -11 28 -14 24 -7 -4 6 -2 11 5 11 8 0 8 4 -1 15 -7 8 -17 15 -22 15 -6 0 -5 -7 2 -15z"/> <path d="M88 1429 c-10 -5 -15 -16 -12 -24 7 -17 54 -21 54 -5 0 6 -4 10 -9 10 -5 0 -11 6 -13 14 -2 11 -8 12 -20 5z"/> <path d="M2636 1425 c-19 -15 -19 -15 5 -15 37 0 69 11 63 21 -8 14 -47 10 -68 -6z"/> <path d="M1228 1407 c-3 -14 0 -31 5 -36 8 -8 8 -14 1 -21 -7 -7 -18 -2 -34 15 -13 14 -28 25 -34 25 -6 0 12 -23 39 -52 28 -29 39 -44 26 -33 -12 11 -33 21 -45 22 -11 1 -37 4 -56 7 -19 3 -42 5 -50 5 -8 1 -30 15 -48 32 -18 17 -39 29 -48 27 -9 -2 24 -35 86 -87 81 -66 106 -82 126 -78 18 3 30 -3 45 -22 12 -14 24 -25 27 -23 4 2 8 -1 10 -7 2 -6 -4 -11 -13 -11 -14 0 -15 -3 -5 -14 6 -8 13 -43 15 -77 3 -35 10 -66 17 -70 7 -4 13 -7 15 -6 1 1 -6 28 -14 60 -9 31 -14 59 -12 62 3 2 47 -9 99 -25 57 -18 98 -26 104 -20 5 5 0 32 -13 67 -18 46 -44 81 -130 172 -102 108 -108 113 -113 88z m64 -49 c38 -35 59 -100 37 -113 -7 -5 -1 -18 18 -39 l28 -31 -32 29 c-18 16 -31 32 -28 35 3 2 -8 18 -23 35 -29 31 -47 66 -35 66 4 0 18 -10 32 -22 16 -14 13 -8 -6 13 -28 29 -42 59 -30 59 2 0 19 -15 39 -32z m-134 -57 c12 -6 20 -16 17 -22 -4 -5 -1 -8 6 -7 6 2 14 -3 17 -11 3 -11 -2 -12 -24 -7 -28 7 -74 42 -74 56 0 10 32 5 58 -9z m84 -23 c18 -18 26 -25 18 -15 -21 29 -1 33 27 5 25 -26 25 -26 4 -33 -11 -3 -21 -10 -21 -15 0 -5 6 -7 13 -4 7 2 27 -7 46 -20 18 -14 38 -23 45 -20 6 2 34 -19 61 -47 34 -36 41 -46 20 -32 -16 12 -41 32 -54 46 -18 20 -27 23 -40 16 -19 -13 -76 6 -66 21 3 5 -5 15 -19 22 -14 6 -26 15 -26 19 0 5 -19 26 -42 48 -39 37 -41 41 -20 41 13 0 37 -14 54 -32z m156 -54 c29 -24 44 -64 24 -64 -13 0 -66 58 -68 75 -3 21 8 19 44 -11z"/> <path d="M2085 1407 c-20 -18 -20 -19 10 -6 40 17 52 28 29 27 -11 -1 -28 -10 -39 -21z"/> <path d="M2754 1414 c3 -9 6 -22 6 -30 0 -16 55 -20 65 -4 4 6 -7 10 -25 10 -27 0 -30 3 -25 20 5 15 2 20 -10 20 -12 0 -15 -5 -11 -16z"/> <path d="M200 1409 c0 -7 -12 -8 -32 -4 l-33 6 28 -16 c15 -9 27 -24 27 -35 0 -13 5 -18 15 -14 12 5 13 9 4 21 -9 10 -9 17 -1 25 13 13 35 0 28 -18 -3 -8 -1 -14 4 -14 17 0 11 32 -7 46 -22 16 -33 17 -33 3z"/> <path d="M2874 1404 c-18 -15 -17 -15 12 -10 26 4 36 0 50 -19 19 -25 54 -34 54 -15 0 6 -9 10 -20 10 -11 0 -24 8 -27 18 -13 34 -39 41 -69 16z"/> <path d="M2414 1394 c3 -9 6 -20 6 -26 0 -6 6 -5 15 2 12 10 13 16 4 26 -16 19 -33 18 -25 -2z"/> <path d="M270 1381 c0 -5 7 -14 15 -21 16 -14 18 -10 9 14 -6 17 -24 22 -24 7z"/> <path d="M1078 1381 c8 -4 14 -12 15 -17 1 -4 11 -9 21 -9 18 -2 17 0 -3 17 -13 10 -28 18 -35 18 -7 0 -6 -4 2 -9z"/> <path d="M1380 1387 c0 -2 15 -14 33 -27 l32 -23 -24 26 c-21 23 -41 35 -41 24z"/> <path d="M1865 1379 c-191 -32 -183 -29 -178 -50 3 -10 13 -19 22 -19 21 0 223 38 228 43 5 6 -8 37 -16 36 -3 -1 -28 -5 -56 -10z"/> <path d="M2205 1380 c-3 -6 1 -13 10 -16 19 -8 30 0 20 15 -8 14 -22 14 -30 1z"/> <path d="M2660 1380 c0 -6 -12 -16 -27 -22 -23 -9 -25 -12 -10 -15 12 -3 16 -10 12 -24 -5 -15 -1 -19 19 -19 30 0 31 3 14 30 -11 17 -10 22 1 29 8 5 20 7 28 4 7 -3 13 2 13 11 0 10 -9 16 -25 16 -14 0 -25 -5 -25 -10z"/> <path d="M27 1367 c-18 -7 -27 -18 -26 -31 1 -16 2 -17 6 -4 5 21 53 34 64 16 7 -10 11 -10 21 0 9 9 9 12 -5 12 -9 0 -17 5 -17 10 0 12 -6 11 -43 -3z"/> <path d="M318 1339 c5 -44 23 -55 60 -34 l27 14 -32 1 c-39 0 -50 15 -29 39 16 17 15 19 -6 19 -21 0 -23 -4 -20 -39z"/> <path d="M122 1361 c4 -13 18 -16 19 -4 0 4 -5 9 -11 12 -7 2 -11 -2 -8 -8z"/> <path d="M1950 1365 c0 -6 22 -33 50 -60 27 -27 47 -51 45 -54 -3 -2 -21 11 -41 30 l-35 34 45 -95 c181 -385 236 -495 245 -493 6 2 8 -3 5 -11 -8 -20 82 -206 99 -206 9 0 13 -8 10 -22 -2 -14 18 -67 51 -133 32 -64 55 -101 55 -88 1 12 -3 25 -9 28 -15 9 -12 27 3 19 6 -4 2 4 -10 17 -29 33 -85 153 -73 157 18 6 10 28 -21 58 -18 16 -45 57 -60 91 -34 73 -33 69 -13 77 10 4 14 1 11 -6 -2 -7 7 -26 20 -43 35 -45 38 -49 39 -60 6 -56 44 -77 39 -22 -5 58 -7 62 -15 32 -7 -26 -8 -23 -8 20 0 42 -15 83 -96 260 -73 157 -107 220 -137 251 -22 22 -38 42 -35 45 2 2 -34 45 -80 94 -46 50 -84 85 -84 80z m136 -147 c16 -17 23 -28 17 -24 -18 10 -16 2 7 -44 26 -51 26 -68 -1 -44 -32 29 -81 131 -66 137 6 3 12 6 13 6 0 1 13 -13 30 -31z m51 -160 c27 -28 73 -114 73 -136 0 -14 -60 53 -70 79 -7 16 -16 29 -21 29 -5 0 -9 11 -9 24 0 13 -6 27 -12 29 -7 3 -8 6 -2 6 5 1 24 -14 41 -31z m93 -95 c0 -7 -4 -13 -10 -13 -5 0 -10 12 -10 28 0 21 2 24 10 12 5 -8 10 -21 10 -27z m41 -140 c5 -7 8 -13 5 -13 -3 0 0 -13 5 -30 6 -16 15 -28 19 -25 5 3 11 1 15 -5 13 -21 -32 -9 -54 14 -24 25 -71 119 -71 139 0 10 45 -34 81 -80z m79 -124 c0 -10 -4 -19 -10 -19 -5 0 -10 12 -10 26 0 14 4 23 10 19 6 -3 10 -15 10 -26z"/> <path d="M2050 1233 c0 -13 29 -38 35 -31 3 3 -4 13 -15 23 -11 10 -20 13 -20 8z"/> <path d="M2521 1356 c-9 -11 -6 -15 14 -18 28 -6 27 -6 19 16 -8 20 -18 20 -33 2z"/> <path d="M1545 1330 c8 -9 24 -16 36 -17 20 -2 20 -1 4 17 -9 10 -25 18 -36 17 -16 -1 -17 -3 -4 -17z"/> <path d="M2364 1337 c-23 -13 -21 -37 2 -37 8 0 13 6 12 13 -2 7 6 11 20 9 21 -2 22 0 8 13 -17 18 -15 18 -42 2z"/> <path d="M2735 1332 c3 -11 -1 -32 -10 -48 -8 -16 -15 -36 -15 -44 0 -9 -5 -21 -11 -27 -7 -7 -3 -9 17 -5 19 3 25 1 20 -7 -10 -16 3 -34 17 -23 12 9 24 11 79 13 18 0 25 5 22 13 -4 10 -16 11 -46 6 -68 -13 -117 24 -69 50 13 7 28 7 46 0 18 -7 31 -6 44 2 23 14 55 3 47 -17 -4 -12 -2 -13 14 -2 27 16 25 25 -7 33 -39 9 -54 24 -48 45 5 15 1 19 -15 19 -17 0 -20 -4 -15 -17 17 -42 17 -53 1 -53 -26 0 -55 36 -49 59 4 15 1 21 -12 21 -11 0 -15 -6 -10 -18z"/> <path d="M1798 1308 c-66 -14 -95 -24 -92 -32 3 -7 -13 -21 -36 -31 -30 -14 -39 -23 -34 -34 3 -9 30 -86 58 -171 37 -109 58 -156 69 -158 10 -2 17 1 17 7 0 6 10 11 23 11 22 0 25 -7 30 -77 1 -12 4 -20 6 -18 2 2 9 -1 16 -8 15 -15 7 -47 -12 -47 -10 0 -13 6 -9 16 3 8 2 12 -4 9 -6 -3 -10 -1 -10 5 0 6 -4 8 -10 5 -7 -4 -7 3 0 20 5 14 6 24 1 21 -4 -3 -13 6 -19 19 -7 14 -18 25 -27 25 -15 0 -12 -13 14 -75 24 -58 42 -127 37 -141 -9 -24 16 -133 32 -139 9 -3 12 0 10 7 -21 55 -39 120 -36 124 3 2 32 -76 65 -174 35 -102 66 -176 72 -174 7 1 21 -3 33 -9 12 -6 37 -12 57 -14 49 -3 100 -16 107 -26 3 -5 27 -9 54 -9 31 0 50 -5 53 -14 3 -7 14 -15 25 -18 15 -4 18 -1 14 18 -4 20 0 24 21 24 21 0 28 -8 43 -46 9 -25 20 -40 23 -35 7 11 81 8 81 -3 0 -3 0 -15 0 -26 0 -13 -7 -20 -19 -20 -11 0 -22 -6 -25 -12 -3 -7 -3 -3 -1 8 4 16 0 23 -16 27 -13 4 -19 1 -16 -6 20 -48 20 -47 -10 -47 -26 0 -32 5 -43 41 -12 35 -45 66 -58 54 -10 -10 22 -74 41 -83 18 -9 19 -11 5 -11 -10 -1 -18 -5 -18 -11 0 -19 -48 -11 -55 10 -12 39 -55 66 -55 35 0 -8 8 -15 18 -15 9 0 13 -4 7 -8 -5 -4 -10 -16 -10 -27 0 -13 -8 -21 -21 -23 -17 -2 -25 10 -51 78 -21 56 -27 80 -18 80 8 0 20 3 28 6 10 3 18 -5 25 -25 10 -28 52 -63 52 -42 0 44 -46 81 -101 81 -16 0 -44 7 -60 16 -17 8 -38 17 -47 19 -10 2 -29 6 -44 10 l-27 7 32 -97 c25 -73 39 -101 57 -111 23 -14 23 -14 3 -9 -21 6 -22 4 -12 -24 7 -21 18 -31 31 -31 17 0 360 66 445 85 22 5 22 6 -12 77 -32 66 -39 73 -75 84 -22 7 -40 8 -40 3 0 -5 -4 -9 -8 -9 -5 0 -6 15 -4 32 4 29 3 31 -11 20 -12 -10 -21 -11 -37 -2 -11 6 -24 9 -28 6 -4 -2 -16 2 -27 10 -10 8 -15 14 -11 14 5 0 3 6 -3 13 -6 8 -22 45 -37 82 -24 65 -24 70 -8 82 16 11 13 13 -19 13 -23 0 -37 5 -38 13 0 6 -4 2 -9 -10 -6 -15 -15 -21 -25 -17 -8 4 -23 0 -32 -7 -13 -12 -17 -12 -21 -1 -3 10 -8 10 -22 -3 -25 -23 -37 0 -14 26 13 15 26 19 45 15 21 -4 31 0 42 17 11 17 17 19 28 10 18 -14 89 -9 99 8 5 6 6 -9 5 -34 -2 -26 -7 -52 -11 -58 -4 -7 -3 -9 4 -5 13 8 36 -59 26 -75 -4 -8 -3 -9 4 -5 7 4 14 -3 18 -19 7 -29 24 -34 24 -6 0 11 6 22 13 24 7 3 5 6 -5 6 -10 1 -18 8 -18 17 0 10 6 14 15 10 9 -3 15 0 15 10 0 22 22 12 31 -15 5 -12 5 -20 0 -17 -5 3 -11 -1 -15 -9 -3 -8 0 -14 6 -12 7 1 13 -5 14 -13 2 -30 4 -32 17 -21 8 6 17 7 21 3 4 -4 -8 28 -28 71 -20 42 -52 111 -71 152 -19 41 -39 75 -44 75 -6 0 -8 6 -5 13 2 7 -2 21 -10 32 -9 11 -16 14 -16 8 0 -7 -6 -13 -14 -13 -8 0 -16 -3 -19 -7 -2 -5 -2 -2 -1 5 2 7 -7 12 -21 12 -29 0 -29 -1 -14 -33 8 -19 8 -30 -1 -43 -10 -18 -11 -17 -7 4 3 13 1 20 -5 16 -6 -4 -8 2 -4 17 6 20 5 21 -4 7 -7 -11 -7 -25 1 -45 9 -25 12 -26 22 -12 10 13 15 14 24 4 7 -7 9 -16 5 -19 -3 -4 1 -4 11 0 9 3 17 2 17 -4 0 -14 -19 -19 -48 -14 -25 5 -56 59 -68 121 -4 17 -10 31 -15 31 -18 0 -18 -41 1 -92 39 -105 -9 -114 -50 -11 -26 63 -49 99 -65 97 -5 0 -23 -6 -38 -12 -34 -14 -53 -7 -36 14 6 8 17 13 23 13 6 -1 18 0 26 4 53 20 78 9 64 -28 -5 -11 -2 -14 12 -9 11 4 24 12 29 19 14 16 60 31 51 16 -5 -7 1 -11 14 -11 16 0 20 -4 16 -15 -13 -33 -16 -49 -5 -27 8 15 22 22 43 23 30 0 30 1 9 11 -24 11 -30 32 -14 43 6 3 13 0 18 -7 4 -7 16 -19 26 -27 20 -16 24 1 4 21 -7 7 -19 33 -26 58 -13 44 -14 44 -24 20 -5 -14 -9 -35 -8 -47 3 -24 -22 -32 -34 -13 -5 8 -12 7 -23 -2 -13 -11 -15 -10 -9 5 5 13 1 17 -14 17 -21 0 -44 42 -56 101 -4 22 -2 29 10 29 10 0 14 9 13 25 0 14 -5 25 -10 25 -5 0 -3 7 4 15 7 9 19 14 26 11 8 -3 11 0 8 8 -3 8 -13 12 -23 9 -14 -3 -21 4 -29 25 -6 17 -8 33 -5 35 11 11 -9 46 -25 45 -42 -3 -82 3 -82 13 0 5 5 7 10 4 6 -3 18 -4 28 -1 14 5 17 14 14 36 -5 34 17 43 25 10 6 -22 18 -26 28 -10 3 6 1 10 -5 10 -7 0 -9 7 -6 15 3 9 -1 18 -9 22 -9 3 -14 10 -13 17 1 6 -5 30 -15 54 -20 50 -23 50 -169 20z m162 -28 c0 -5 -7 -10 -15 -10 -8 0 -15 5 -15 10 0 6 7 10 15 10 8 0 15 -4 15 -10z m-110 -10 c0 -5 -7 -10 -15 -10 -8 0 -15 5 -15 10 0 6 7 10 15 10 8 0 15 -4 15 -10z m80 -46 c25 -57 25 -64 0 -64 -15 0 -26 13 -40 46 -11 25 -18 50 -14 55 13 21 36 6 54 -37z m-143 -31 c10 -30 23 -58 30 -60 7 -3 13 -12 13 -20 0 -8 -6 -13 -12 -10 -7 2 -12 10 -10 16 1 6 -8 11 -20 11 -18 0 -27 11 -44 54 -12 30 -20 56 -18 58 1 2 12 4 23 5 16 1 24 -9 38 -54z m80 2 l21 -55 -25 0 c-19 0 -28 9 -43 46 -25 58 -25 64 4 64 19 0 27 -10 43 -55z m94 42 c-1 -12 -15 -9 -19 4 -3 6 1 10 8 8 6 -3 11 -8 11 -12z m-242 -60 c9 -26 23 -52 31 -57 21 -13 10 -18 -26 -13 -26 4 -33 12 -48 53 -10 27 -15 54 -11 60 14 23 39 3 54 -43z m156 -77 c-3 -5 5 -10 17 -12 15 -2 25 -13 32 -35 5 -18 15 -33 22 -33 8 0 14 -4 14 -10 0 -5 -4 -10 -10 -10 -5 0 -7 -7 -4 -15 4 -11 0 -15 -16 -15 -22 0 -53 23 -44 33 7 7 -24 80 -39 89 -9 6 -8 10 3 17 16 11 33 4 25 -9z m-75 -11 c0 -5 -6 -9 -14 -9 -25 0 -26 -16 -6 -76 13 -36 17 -61 11 -67 -17 -17 -37 0 -50 44 -7 24 -18 50 -23 56 -7 9 -6 15 6 19 9 3 16 12 16 20 0 8 7 14 15 14 8 0 15 4 15 10 0 5 7 7 15 4 8 -4 15 -10 15 -15z m184 -11 c-1 -10 2 -16 6 -13 4 2 15 -14 23 -37 9 -23 16 -42 14 -43 -1 0 -15 -5 -32 -11 -24 -8 -29 -15 -27 -34 5 -46 5 -55 -2 -75 -5 -15 -4 -14 5 3 15 28 43 30 34 3 -3 -11 1 -36 10 -56 19 -47 19 -45 -9 -45 -19 0 -27 9 -41 43 -9 23 -18 59 -20 80 -3 45 -8 52 -31 43 -13 -5 -14 -9 -4 -21 8 -10 9 -15 2 -15 -6 0 -15 7 -20 15 -12 23 -40 8 -45 -23 -4 -24 -4 -23 -6 6 -1 22 3 32 14 32 23 0 18 20 -5 21 -11 1 -24 3 -30 4 -5 1 -13 3 -17 4 -5 1 -3 5 4 9 10 6 9 18 -2 55 -13 42 -13 49 1 54 15 6 49 -23 49 -42 1 -33 19 -74 33 -77 20 -5 72 8 84 20 5 5 -2 34 -16 66 l-25 57 27 -3 c18 -2 27 -8 26 -20z m44 -131 c2 -10 -4 -20 -13 -23 -21 -9 -28 0 -20 26 8 24 28 22 33 -3z m-101 -121 c12 -33 22 -60 20 -62 -1 -1 -12 -5 -24 -8 -20 -6 -24 -1 -42 60 -26 81 -26 76 1 72 16 -2 28 -18 45 -62z m143 -67 c0 -5 -7 -9 -15 -9 -15 0 -20 12 -9 23 8 8 24 -1 24 -14z m-230 -30 c0 -5 -7 -9 -15 -9 -8 0 -15 7 -15 15 0 9 6 12 15 9 8 -4 15 -10 15 -15z m47 -41 c6 -5 24 -43 38 -83 15 -41 31 -73 35 -70 9 5 45 -33 38 -40 -11 -12 -101 -9 -105 3 -3 7 5 12 21 12 32 0 35 17 4 22 -19 2 -28 17 -46 72 -19 55 -21 71 -10 77 10 7 9 9 -4 9 -9 0 -19 4 -22 9 -7 11 34 2 51 -11z m122 -67 c26 -80 26 -81 0 -81 -15 0 -26 14 -43 53 -39 88 -40 95 -14 99 30 5 32 3 57 -71z m231 29 c11 -11 20 -27 20 -35 0 -8 7 -15 15 -15 8 0 15 -7 15 -15 0 -8 -7 -15 -15 -15 -8 0 -15 7 -15 15 0 8 -6 15 -14 15 -7 0 -19 7 -26 15 -7 8 -17 12 -23 8 -6 -3 -7 -1 -3 5 4 7 2 12 -5 12 -7 0 -4 7 7 15 24 18 21 18 44 -5z m70 -111 c13 -24 5 -38 -11 -22 -6 6 -18 9 -25 6 -8 -3 -14 1 -14 9 0 33 34 38 50 7z m12 -53 c16 -23 9 -38 -14 -32 -13 3 -26 6 -29 6 -10 0 -20 31 -13 41 7 12 46 1 56 -15z m-142 -62 c35 -102 35 -96 5 -92 -24 3 -31 13 -55 73 -29 73 -26 90 13 76 13 -5 27 -27 37 -57z m-86 -22 c12 -35 24 -60 28 -57 4 4 4 -2 1 -13 -4 -16 -10 -18 -31 -13 -20 5 -30 20 -48 67 -30 78 -30 86 3 82 23 -3 29 -12 47 -66z m-83 -25 l28 -78 -27 3 c-23 3 -30 12 -49 63 -29 79 -29 97 -2 93 16 -2 28 -21 50 -81z m233 -73 c35 -6 45 -17 27 -29 -21 -13 -128 -10 -145 4 -15 13 -15 16 -2 23 8 4 26 4 40 -2 21 -8 24 -7 19 7 -5 12 -2 15 10 10 8 -3 32 -9 51 -13z m-209 -64 c-3 -5 -16 -10 -28 -10 -18 0 -19 2 -7 10 20 13 43 13 35 0z m406 -39 c0 -12 2 -11 9 4 8 19 9 19 9 -2 1 -28 -20 -30 -43 -4 -21 23 -12 49 10 30 8 -6 14 -19 15 -28z m-355 -36 c12 -33 22 -45 38 -46 17 -1 17 -2 4 -6 -21 -5 -21 -5 -9 -35 6 -16 5 -27 -4 -35 -20 -19 -39 4 -65 77 -12 36 -25 71 -27 78 -3 7 4 12 20 12 21 0 28 -8 43 -45z"/> <path d="M1826 1225 c-3 -9 0 -28 7 -42 12 -22 15 -23 20 -9 4 11 3 15 -4 10 -7 -4 -9 0 -5 12 8 26 -9 53 -18 29z"/> <path d="M1682 1180 c15 -48 25 -57 24 -21 -1 16 -3 27 -5 25 -2 -2 -10 4 -17 14 -12 14 -12 12 -2 -18z"/> <path d="M1880 1065 c0 -5 4 -16 9 -23 6 -11 10 -10 15 4 3 9 4 19 1 22 -3 3 -5 -1 -5 -9 0 -11 -2 -11 -10 1 -5 8 -10 11 -10 5z"/> <path d="M1950 1086 c0 -10 40 -86 45 -86 2 0 -4 18 -14 40 -18 40 -31 60 -31 46z"/> <path d="M1826 1025 c-3 -8 -2 -25 3 -37 l8 -22 5 22 c4 14 2 20 -4 16 -6 -4 -8 1 -3 15 7 24 0 29 -9 6z"/> <path d="M1974 827 c3 -10 6 -24 7 -30 0 -7 5 -1 10 12 5 13 7 26 4 29 -3 3 -5 -1 -5 -9 0 -12 -2 -11 -11 1 -9 12 -10 12 -5 -3z"/> <path d="M1871 659 c-1 -3 6 -30 15 -60 14 -44 18 -50 25 -34 11 29 10 42 -2 25 -8 -11 -9 -8 -5 15 5 23 4 27 -5 15 -8 -12 -9 -8 -5 15 4 20 3 25 -2 16 -8 -11 -10 -11 -15 0 -3 8 -6 11 -6 8z"/> <path d="M1950 674 c0 -6 6 -27 14 -45 7 -19 16 -43 20 -54 6 -16 9 -17 16 -5 6 8 10 20 10 25 0 6 -4 4 -9 -4 -7 -11 -10 -10 -15 6 -4 11 -4 27 0 36 3 9 1 24 -5 34 -9 15 -10 13 -6 -12 l5 -30 -14 30 c-9 17 -15 25 -16 19z"/> <path d="M2141 408 c25 -64 26 -65 42 -48 10 10 9 11 -2 5 -10 -6 -12 -2 -6 16 5 19 4 21 -5 9 -9 -12 -10 -9 -6 15 5 21 4 26 -3 16 -8 -12 -11 -9 -16 12 -4 15 -11 27 -16 27 -5 0 1 -24 12 -52z"/> <path d="M2050 449 c0 -5 -4 -7 -10 -4 -6 3 -7 -1 -3 -10 4 -12 8 -13 13 -5 5 8 9 7 14 -5 10 -26 7 -42 -5 -25 -8 11 -9 9 -3 -10 11 -40 25 -60 18 -25 -4 24 -3 27 6 15 9 -12 10 -10 4 10 -16 59 -34 90 -34 59z"/> <path d="M1971 389 c-1 -3 4 -21 10 -38 9 -24 14 -29 20 -19 13 19 11 36 -2 18 -9 -12 -10 -11 -6 8 3 12 1 20 -3 17 -5 -3 -11 1 -13 7 -3 7 -6 10 -6 7z"/> <path d="M2044 175 c12 -41 45 -120 46 -109 0 17 -32 108 -42 119 -7 7 -8 3 -4 -10z"/> <path d="M2920 1304 c0 -18 29 -25 51 -14 26 15 24 17 -16 22 -23 3 -35 0 -35 -8z"/> <path d="M14 1296 c-4 -11 1 -25 15 -39 l22 -22 -12 35 c-15 45 -17 47 -25 26z"/> <path d="M2460 1294 c0 -13 -7 -15 -27 -11 -16 3 -36 0 -46 -8 -16 -12 -12 -13 37 -13 57 1 86 -13 86 -39 0 -11 4 -13 13 -6 25 21 69 25 87 8 16 -15 18 -14 24 0 9 24 1 32 -36 37 -20 3 -38 0 -46 -9 -18 -18 -33 -13 -43 16 -6 14 -5 20 1 16 6 -3 10 -2 10 3 0 5 -10 12 -22 16 -34 9 -38 8 -38 -10z"/> <path d="M274 1284 c3 -9 6 -24 6 -35 0 -25 42 -26 61 -1 13 15 12 16 -3 3 -26 -20 -51 -6 -46 24 4 17 1 25 -9 25 -10 0 -13 -6 -9 -16z"/> <path d="M1648 1282 c-20 -2 -28 -9 -28 -23 0 -24 18 -24 49 0 27 20 19 28 -21 23z"/> <path d="M210 1273 c8 -3 21 -10 28 -16 8 -7 12 -5 12 7 0 11 -8 16 -27 15 -16 0 -22 -3 -13 -6z"/> <path d="M94 1238 c-10 -13 -19 -30 -19 -38 0 -8 -6 -14 -12 -12 -7 1 -13 -2 -13 -8 0 -15 46 -23 85 -16 22 4 35 3 35 -4 0 -5 -7 -10 -15 -10 -8 0 -15 -7 -15 -15 0 -19 16 -16 46 10 22 19 22 20 3 27 -25 10 -24 26 1 30 12 2 21 7 21 13 1 19 -17 14 -50 -15 -18 -17 -40 -30 -48 -30 -23 0 -27 30 -9 61 21 35 17 37 -10 7z"/> <path d="M2192 1215 l-22 -45 22 -45 c12 -25 27 -44 33 -41 5 2 18 -3 28 -12 9 -8 20 -12 25 -8 4 4 -2 14 -12 22 -14 10 -17 17 -10 24 18 18 41 1 41 -30 0 -16 -4 -27 -9 -24 -12 7 -10 -24 3 -48 8 -16 8 -22 -2 -29 -7 -4 -17 -5 -21 -3 -4 3 -5 -2 -2 -11 5 -11 14 -15 28 -11 25 6 61 -28 50 -46 -5 -7 -2 -8 6 -3 10 6 12 4 7 -9 -5 -11 -3 -15 5 -10 8 5 9 2 5 -10 -4 -9 -3 -15 2 -12 12 8 19 -26 10 -49 -7 -19 -8 -18 -8 3 -1 13 -5 21 -10 18 -5 -4 -21 15 -35 41 -20 35 -23 48 -14 54 18 11 3 23 -16 12 -14 -8 -11 -18 19 -83 89 -190 88 -187 108 -182 10 3 15 8 10 11 -5 3 -19 23 -31 45 -18 30 -20 41 -11 52 9 11 15 11 25 3 7 -6 18 -8 24 -4 7 4 7 -2 0 -20 -7 -17 -7 -32 0 -43 5 -9 10 -12 10 -7 0 6 4 3 10 -5 16 -25 22 -3 8 27 -8 15 -13 38 -12 51 1 16 -3 21 -12 18 -19 -7 -44 3 -44 19 0 7 10 11 25 10 27 -3 32 4 13 23 -6 6 -9 14 -6 18 10 9 60 -95 52 -108 -4 -6 -3 -8 3 -5 6 4 14 0 17 -9 9 -24 7 -31 -4 -14 -6 9 -10 10 -10 3 0 -19 17 -24 29 -9 14 17 60 14 73 -5 5 -8 23 -35 39 -61 17 -27 38 -48 47 -48 13 1 10 6 -10 21 -16 11 -28 28 -28 37 0 13 3 12 15 -4 8 -10 15 -14 15 -7 0 12 -18 28 -33 28 -4 0 -21 20 -37 45 -16 25 -30 41 -30 36 0 -5 -7 -2 -16 5 -15 12 -16 11 -10 -9 5 -16 4 -22 -6 -20 -16 4 -50 56 -44 67 3 5 -6 19 -19 31 -14 13 -25 29 -25 37 0 21 -16 15 -30 -12 -14 -27 -32 -25 -24 3 5 14 4 15 -5 2 -9 -12 -11 -12 -11 -1 0 8 8 20 18 28 15 12 15 13 -8 8 -20 -5 -28 0 -43 26 -18 33 -14 54 9 45 10 -4 9 5 -6 34 -23 45 -25 54 -9 44 8 -4 7 0 -1 15 -6 12 -15 19 -19 17 -5 -3 -16 10 -27 29 -10 18 -21 32 -25 29 -4 -2 -7 4 -7 13 0 10 -3 27 -7 37 -18 42 12 5 35 -43 14 -31 30 -51 40 -51 20 0 52 -33 74 -77 14 -28 36 -45 36 -28 0 24 -178 228 -191 219 -4 -2 -10 5 -14 16 -10 30 -19 25 -43 -25z m51 -37 c20 -50 8 -74 -22 -42 -12 14 -17 30 -13 52 2 18 7 32 11 32 3 0 14 -19 24 -42z m79 -114 c-7 -13 -6 -22 4 -32 11 -11 12 -17 3 -28 -6 -8 -16 -11 -21 -8 -6 4 -5 10 3 15 11 7 10 9 -4 9 -15 0 -16 3 -7 20 6 11 8 26 4 32 -4 7 -3 8 4 4 7 -4 12 -2 12 5 0 7 3 10 6 6 3 -3 1 -13 -4 -23z"/> <path d="M366 1235 c4 -8 10 -12 15 -9 14 8 10 24 -6 24 -9 0 -12 -6 -9 -15z"/> <path d="M2402 1233 c-17 -6 -5 -23 17 -23 10 0 26 -9 36 -20 24 -26 30 -25 30 5 0 19 -6 27 -25 31 -14 3 -29 7 -35 8 -5 2 -16 1 -23 -1z"/> <path d="M456 1206 c6 -16 34 -30 42 -21 6 5 -28 34 -40 35 -4 0 -5 -6 -2 -14z"/> <path d="M1602 1204 c2 -14 -11 -25 -54 -46 l-57 -27 14 -40 c8 -23 11 -41 7 -41 -7 0 -159 41 -199 54 l-21 7 19 -63 c10 -35 19 -64 19 -66 0 -2 -36 -2 -80 0 l-80 3 0 -46 0 -47 104 33 105 33 -6 -48 -6 -48 62 -33 c33 -19 61 -41 61 -49 1 -15 116 -78 125 -68 3 3 -14 18 -37 33 -24 15 -53 40 -65 55 -12 15 -35 30 -50 34 -48 10 -66 31 -65 75 1 31 -3 44 -23 59 -24 19 -45 60 -45 88 0 20 35 18 108 -7 74 -25 94 -17 90 38 -3 42 23 65 66 61 32 -3 40 -19 91 -187 12 -41 27 -77 34 -79 15 -5 10 17 -49 193 -26 76 -53 141 -59 143 -8 3 -12 -3 -9 -14z m-354 -256 c-3 -7 -15 -13 -28 -13 -13 0 -25 6 -27 13 -3 8 6 12 27 12 21 0 30 -4 28 -12z"/> <path d="M2641 1196 c-15 -18 5 -56 29 -56 12 1 11 3 -3 11 -12 7 -15 17 -11 35 7 27 2 31 -15 10z"/> <path d="M2900 1203 c0 -7 5 -15 10 -18 6 -3 10 -13 10 -20 0 -11 -6 -12 -22 -6 -13 4 -44 9 -70 10 -39 2 -47 -1 -42 -14 4 -9 18 -15 35 -15 19 0 29 -5 29 -15 0 -9 -10 -15 -26 -15 -14 0 -23 -4 -20 -9 3 -5 16 -7 27 -4 16 4 20 2 17 -8 -3 -8 -11 -14 -19 -15 -35 -2 -39 -5 -39 -24 0 -25 -35 -27 -48 -4 -6 11 -11 13 -16 5 -4 -6 -19 -11 -33 -11 -37 0 -22 -11 16 -12 18 -1 34 -5 36 -9 7 -10 -34 -79 -47 -79 -6 0 1 -15 15 -34 15 -18 24 -36 22 -38 -3 -3 1 -5 8 -5 6 0 26 -3 44 -7 34 -8 37 -5 47 37 5 23 3 27 -14 27 -12 0 -20 -6 -19 -12 3 -26 -1 -38 -13 -38 -17 1 -68 46 -68 60 0 13 27 13 35 0 9 -15 25 -12 25 5 0 8 -9 15 -20 15 -11 0 -20 7 -20 15 0 8 9 15 20 15 11 0 20 -5 20 -12 0 -9 3 -9 12 0 8 8 8 15 -2 27 -12 14 -10 20 16 40 16 14 37 24 47 25 14 0 17 5 12 21 -6 19 -4 21 18 15 14 -3 29 -2 32 4 4 6 -7 10 -25 10 -21 0 -30 4 -28 13 5 14 58 23 58 10 0 -5 8 -9 18 -9 9 0 28 -4 42 -8 23 -8 23 -8 7 8 -9 10 -15 22 -12 27 4 5 -5 9 -19 9 -29 0 -35 16 -8 23 14 4 13 5 -3 6 -12 0 -26 6 -33 13 -9 9 -12 9 -12 1z"/> <path d="M232 1152 c-7 -14 -12 -32 -12 -39 0 -7 -11 -13 -24 -13 -14 0 -27 -4 -30 -8 -2 -4 11 -7 30 -7 19 1 37 -2 40 -7 7 -11 34 -10 34 2 0 6 -6 10 -14 10 -21 0 -31 21 -15 31 8 4 20 3 29 -4 13 -10 13 -10 1 5 -7 10 -11 24 -8 32 10 26 -18 24 -31 -2z"/> <path d="M2410 1170 c0 -5 -7 -10 -15 -10 -8 0 -15 -4 -15 -9 0 -13 28 -22 35 -11 8 13 35 1 35 -16 0 -8 5 -14 11 -14 6 0 27 -13 46 -30 36 -32 55 -38 51 -18 -2 8 11 13 35 14 41 1 52 7 43 22 -3 6 -20 7 -40 2 -62 -14 -122 10 -74 29 21 9 21 10 3 10 -12 1 -27 -5 -33 -11 -10 -10 -19 -6 -43 20 -32 34 -39 38 -39 22z"/> <path d="M2000 1140 c0 -5 9 -10 21 -10 11 0 17 5 14 10 -3 6 -13 10 -21 10 -8 0 -14 -4 -14 -10z"/> <path d="M304 1124 c-18 -15 -18 -15 6 -10 14 3 32 6 40 6 13 0 13 1 0 10 -20 13 -23 13 -46 -6z"/> <path d="M67 1123 c-3 -3 -3 -11 0 -19 3 -8 0 -20 -6 -27 -8 -10 -3 -21 20 -42 l30 -29 -16 31 c-11 22 -13 38 -6 56 7 19 6 27 -4 30 -7 3 -15 3 -18 0z"/> <path d="M2380 1111 c8 -15 17 -20 30 -16 22 7 38 -14 20 -25 -10 -6 -8 -16 9 -42 13 -18 20 -24 16 -13 -9 26 -10 35 -2 60 6 17 1 23 -30 35 -21 8 -42 17 -46 19 -5 2 -4 -6 3 -18z"/> <path d="M2775 1120 c-4 -6 -13 -9 -21 -6 -19 7 -18 -1 5 -25 19 -20 19 -20 25 7 8 29 2 42 -9 24z"/> <path d="M450 1109 c-12 -8 -10 -9 8 -4 16 5 22 2 22 -9 0 -9 5 -16 10 -16 14 0 13 13 -2 28 -15 15 -19 15 -38 1z"/> <path d="M2028 1114 c-10 -10 4 -44 18 -44 17 0 18 -26 2 -34 -7 -3 -3 -3 9 0 16 3 23 -1 28 -16 4 -12 9 -19 11 -17 6 6 -48 117 -56 117 -4 0 -9 -3 -12 -6z"/> <path d="M2667 1103 c-14 -13 -6 -23 18 -23 28 0 34 15 9 24 -19 7 -19 7 -27 -1z"/> <path d="M360 1078 c-24 -20 -24 -20 -2 -14 31 10 29 -17 -3 -34 -20 -10 -28 -11 -37 -2 -7 7 -21 12 -32 12 -20 0 -19 -2 4 -20 14 -10 27 -17 29 -14 2 2 10 -1 18 -8 7 -6 14 -9 16 -7 1 2 7 13 13 24 10 17 21 20 68 19 50 -2 55 0 39 12 -10 7 -32 14 -50 14 -24 0 -31 4 -27 14 9 23 -10 25 -36 4z"/> <path d="M0 1080 c0 -6 7 -13 15 -17 24 -9 27 1 5 15 -13 8 -20 8 -20 2z"/> <path d="M300 1075 c0 -9 6 -12 15 -9 8 4 12 10 9 15 -8 14 -24 10 -24 -6z"/> <path d="M2465 1061 c-3 -11 1 -34 9 -50 9 -17 16 -39 16 -50 0 -11 5 -23 10 -26 16 -10 12 -25 -5 -19 -8 3 -13 9 -12 13 3 10 -40 61 -46 54 -4 -3 -1 -15 5 -26 15 -28 78 -93 88 -90 5 1 11 -4 14 -13 3 -8 2 -12 -4 -9 -6 3 -10 1 -10 -4 0 -14 17 -14 25 -1 3 6 15 10 26 10 22 0 25 10 7 28 -6 6 -9 15 -5 18 3 4 11 -5 18 -19 7 -15 18 -24 28 -22 9 2 19 4 23 4 4 1 4 9 1 18 -6 15 -3 15 27 -3 18 -10 36 -26 38 -34 4 -13 3 -13 -11 -2 -9 8 -25 11 -36 7 -19 -6 -19 -8 10 -55 27 -44 33 -49 60 -45 24 3 29 0 25 -11 -3 -8 -2 -13 3 -10 5 3 11 -1 14 -8 5 -11 -3 -15 -33 -14 -30 0 -43 6 -55 24 -9 14 -20 22 -25 19 -11 -7 -53 72 -45 85 3 4 -8 3 -25 -3 -16 -6 -30 -16 -30 -22 0 -5 -5 -3 -11 5 -9 13 -10 13 -6 0 2 -8 10 -15 18 -15 7 0 24 -18 36 -40 12 -22 29 -39 37 -37 7 1 21 -9 30 -23 9 -14 21 -23 25 -21 11 7 33 -43 25 -56 -4 -7 -2 -8 4 -4 7 4 12 2 12 -3 0 -6 5 -11 10 -11 6 0 -1 20 -16 45 -14 25 -24 45 -21 45 10 0 73 -34 90 -48 10 -9 25 -17 33 -18 13 -2 13 1 -1 22 -8 13 -37 66 -64 116 -127 244 -133 253 -160 243 -8 -3 -20 4 -28 15 -19 26 -37 27 -23 0 6 -11 8 -20 4 -20 -4 0 -1 -8 7 -17 26 -32 61 -103 50 -103 -6 0 -22 20 -37 45 -15 26 -31 42 -37 38 -7 -4 -8 0 -4 11 5 11 3 15 -5 10 -8 -5 -9 -2 -5 10 4 10 3 15 -3 11 -6 -3 -13 1 -16 10 -4 9 -13 14 -21 10 -12 -4 -14 1 -11 20 6 31 -8 43 -17 16z m73 -108 c10 -21 23 -37 29 -36 12 3 6 -34 -8 -42 -4 -3 -15 5 -24 17 l-17 23 7 -25 c4 -14 4 -22 0 -17 -5 4 -9 22 -11 40 -1 17 -5 42 -9 55 -12 37 13 26 33 -15z m121 -14 c25 -27 34 -60 15 -52 -8 3 -11 10 -7 17 4 6 0 5 -9 -2 -15 -12 -19 -9 -32 17 -9 16 -16 32 -16 36 0 13 31 3 49 -16z m67 -137 c6 -4 16 -16 22 -27 9 -17 7 -21 -8 -21 -15 0 -17 3 -7 15 10 12 9 13 -1 7 -13 -8 -42 9 -42 25 0 11 21 11 36 1z m-26 -116 c0 -5 -7 -1 -15 10 -8 10 -14 24 -14 29 0 6 6 1 14 -9 8 -11 15 -24 15 -30z"/> <path d="M2980 1060 c0 -22 -20 -26 -38 -8 -9 9 -12 7 -12 -11 0 -17 -5 -22 -22 -20 -30 4 -48 -8 -48 -32 0 -14 7 -19 26 -19 24 0 25 -3 19 -27 -3 -16 -13 -32 -21 -36 -12 -7 -12 -12 -4 -22 16 -19 39 -8 33 16 -3 12 1 21 11 25 23 9 68 -34 60 -58 -3 -10 -1 -18 5 -18 17 0 13 52 -5 65 -13 9 -15 21 -9 63 4 29 11 52 16 52 5 0 9 11 9 25 0 14 -4 25 -10 25 -5 0 -10 -9 -10 -20z m-20 -70 c0 -23 -13 -32 -34 -24 -19 7 -21 40 -3 47 20 7 37 -4 37 -23z"/> <path d="M2586 1052 c-3 -5 6 -14 20 -21 32 -14 34 -14 34 5 0 10 -6 14 -14 11 -7 -3 -18 -1 -24 5 -6 6 -12 6 -16 0z"/> <path d="M160 1022 c0 -14 6 -30 14 -36 10 -8 12 -18 5 -34 -7 -19 -14 -22 -31 -16 -29 9 -104 13 -129 7 -35 -9 -20 -25 19 -20 50 7 162 -14 162 -30 0 -7 -8 -13 -17 -13 -10 -1 -3 -7 16 -16 33 -14 33 -15 15 -29 -25 -19 -43 -19 -50 0 -4 8 -10 15 -16 15 -5 0 -7 -4 -4 -9 8 -13 -21 -34 -34 -26 -7 4 -10 15 -7 25 3 13 -2 17 -21 16 -14 -1 -27 5 -30 13 -3 10 0 12 11 8 9 -3 19 -2 22 3 6 9 -24 14 -42 8 -12 -5 -12 -48 0 -48 7 0 25 -10 41 -23 26 -21 27 -24 13 -39 -15 -14 -15 -17 -1 -29 8 -7 13 -18 10 -26 -7 -16 16 -17 33 0 10 10 15 8 28 -8 11 -14 17 -16 20 -7 7 17 33 15 33 -3 0 -8 -7 -15 -15 -15 -8 0 -15 -9 -15 -20 0 -18 3 -19 20 -10 11 6 20 17 20 24 0 24 28 40 44 27 11 -10 20 -10 36 -1 12 7 38 10 57 8 26 -3 37 0 45 15 8 16 7 18 -11 12 -69 -21 -146 -10 -135 20 4 8 1 15 -5 15 -10 0 -15 -20 -12 -47 1 -7 -5 -13 -14 -13 -8 0 -15 7 -15 15 0 20 -10 19 -25 -2 -14 -19 -35 -9 -35 17 0 10 -4 22 -10 25 -15 10 -12 38 4 32 7 -3 26 1 41 9 30 15 49 10 41 -12 -3 -8 -1 -14 3 -14 15 0 20 27 8 39 -15 15 -7 20 34 23 25 2 34 -1 34 -12 0 -9 -9 -15 -23 -14 -21 1 -21 -1 -8 -15 12 -11 19 -12 27 -4 6 6 18 9 25 6 10 -4 12 0 8 11 -4 9 1 25 10 35 15 16 14 17 -24 14 -31 -2 -40 0 -40 13 0 11 6 15 20 11 11 -3 23 -1 26 4 3 6 11 5 20 -2 11 -9 13 -9 9 2 -8 23 48 76 90 83 34 7 37 6 32 -13 -3 -12 1 -22 10 -25 10 -4 13 0 11 16 -2 15 5 26 22 35 22 11 15 12 -50 8 -41 -2 -81 -4 -88 -4 -7 -1 -12 -9 -10 -18 2 -13 -3 -18 -18 -17 -14 0 -20 -6 -20 -20 1 -18 -5 -21 -49 -22 -69 -1 -105 6 -105 22 0 19 17 26 38 15 16 -9 20 -5 29 24 9 27 8 33 -3 28 -8 -3 -14 -11 -14 -19 0 -11 -7 -13 -27 -8 -38 9 -43 13 -43 30 0 8 10 14 24 14 14 0 27 4 30 9 3 5 -10 9 -29 8 -30 -1 -35 -4 -35 -25z m80 -138 c0 -8 -7 -14 -15 -14 -15 0 -21 21 -9 33 10 9 24 -2 24 -19z m40 0 c0 -16 -16 -19 -25 -4 -8 13 4 32 16 25 5 -4 9 -13 9 -21z m-140 -128 c0 -8 -4 -17 -9 -21 -12 -7 -24 12 -16 25 9 15 25 12 25 -4z"/> <path d="M2350 1048 c0 -3 12 -27 26 -52 15 -26 23 -50 20 -54 -4 -3 -11 0 -15 7 -6 9 -11 10 -15 2 -4 -6 -2 -11 4 -11 6 0 8 -4 5 -10 -10 -16 7 -12 27 7 16 15 18 15 13 1 -4 -9 -2 -19 4 -23 7 -3 11 2 11 15 0 11 -7 23 -15 26 -8 4 -15 10 -15 16 0 5 6 6 13 2 6 -4 -1 8 -18 27 -16 19 -33 38 -37 44 -5 5 -8 6 -8 3z"/> <path d="M827 1021 c-10 -12 -2 -13 58 -6 39 4 113 11 165 15 87 7 82 7 -58 6 -119 -1 -156 -4 -165 -15z"/> <path d="M1143 1025 c-16 -18 -16 -25 0 -25 7 0 13 9 14 20 2 23 2 24 -14 5z"/> <path d="M30 996 c0 -20 19 -31 32 -18 7 7 3 14 -11 21 -17 10 -21 9 -21 -3z"/> <path d="M1063 1003 c9 -2 25 -2 35 0 9 3 1 5 -18 5 -19 0 -27 -2 -17 -5z"/> <path d="M1190 1000 c37 -12 102 -12 95 0 -3 6 -32 10 -63 9 -44 -1 -51 -3 -32 -9z"/> <path d="M80 978 c0 -4 9 -8 19 -8 11 0 26 -3 35 -6 10 -4 16 -1 16 7 0 9 -13 14 -35 15 -19 0 -35 -3 -35 -8z"/> <path d="M1056 928 c-38 -47 -45 -62 -35 -69 9 -5 16 -3 19 5 6 16 57 76 64 76 13 0 4 -37 -14 -60 -11 -14 -20 -33 -20 -42 0 -10 -7 -18 -15 -18 -8 0 -15 5 -15 10 0 6 -4 10 -10 10 -5 0 -10 -10 -10 -22 0 -11 -11 -36 -26 -55 -15 -20 -26 -48 -27 -73 -2 -37 -2 -38 16 -22 10 9 14 18 9 20 -11 3 -3 52 9 52 5 0 7 -12 3 -27 -6 -25 -2 -23 40 22 26 28 44 43 40 35 -5 -10 1 -8 16 5 20 17 22 17 17 3 -4 -12 -2 -15 9 -11 10 4 12 0 8 -10 -4 -12 -14 -15 -33 -11 -25 5 -36 -4 -109 -90 -45 -52 -82 -98 -82 -101 0 -3 8 -5 18 -5 9 0 28 16 41 35 17 26 31 35 52 35 35 0 46 -16 20 -30 -14 -7 -22 -7 -27 2 -4 6 -3 8 4 4 6 -3 13 -2 16 3 7 11 -13 9 -32 -3 -23 -14 5 -37 33 -26 15 6 27 5 34 -3 9 -9 15 -7 24 8 18 31 16 62 -4 49 -6 -4 -6 -11 1 -19 8 -10 8 -15 0 -20 -14 -9 -23 0 -27 25 -3 19 1 21 48 25 9 0 24 7 33 14 26 22 19 2 -15 -41 -17 -21 -28 -42 -24 -46 7 -7 39 26 48 51 11 25 25 -16 23 -65 -2 -26 -2 -48 0 -48 1 0 19 27 39 61 21 33 39 58 42 55 3 -2 -11 -28 -29 -58 -55 -85 -53 -82 -35 -75 10 4 25 10 34 14 13 5 15 3 10 -11 -4 -10 -3 -15 3 -11 16 10 12 -11 -5 -25 -13 -10 -15 -9 -15 9 0 21 -14 28 -24 12 -3 -4 4 -17 15 -27 21 -18 21 -18 39 3 10 12 19 20 22 18 2 -2 4 4 4 15 0 14 -3 16 -13 8 -26 -21 -12 5 43 78 56 77 62 95 25 74 -17 -8 -21 -8 -21 4 0 20 49 76 66 76 19 0 18 -19 -3 -42 -9 -10 -14 -21 -10 -24 3 -3 24 22 48 55 23 33 45 59 47 56 2 -2 -20 -37 -50 -77 -130 -175 -130 -175 -116 -197 6 -11 21 -22 31 -25 12 -3 17 -10 14 -19 -4 -10 3 -17 20 -22 14 -3 26 -5 27 -3 39 57 49 67 56 63 8 -5 100 106 100 121 0 4 -21 -20 -46 -55 -26 -34 -49 -60 -51 -57 -3 3 19 38 49 78 67 90 88 121 88 129 0 3 -18 14 -40 24 -39 18 -41 18 -55 -1 -13 -18 -14 -17 -15 14 0 18 -6 35 -13 38 -21 8 -83 -23 -101 -51 -9 -14 -22 -25 -29 -25 -6 0 -22 -18 -35 -40 -13 -22 -27 -38 -32 -35 -5 3 -19 -8 -31 -25 -22 -30 -39 -39 -39 -21 0 13 52 91 61 91 4 0 9 -8 11 -17 2 -11 10 -4 23 23 11 21 30 55 42 74 25 41 42 163 24 175 -20 12 -166 -43 -196 -75 -28 -29 -28 -30 -7 -30 12 0 22 -6 22 -14 0 -9 -10 -13 -30 -11 -17 1 -33 -2 -36 -7 -7 -11 -24 9 -24 27 0 6 4 4 8 -3 6 -9 14 -7 30 11 20 21 20 27 10 95 -6 39 -13 72 -17 71 -3 0 -28 -28 -55 -61z m263 -60 c-45 -60 -49 -64 -49 -52 1 14 71 107 77 100 3 -3 -9 -24 -28 -48z m-44 2 c-3 -5 -13 -10 -21 -10 -8 0 -14 5 -14 10 0 6 9 10 21 10 11 0 17 -4 14 -10z m-22 -45 c-2 -5 -7 -10 -12 -10 -5 0 -13 -4 -18 -8 -8 -8 -9 -12 -12 -38 -1 -7 -11 -9 -27 -5 -17 5 -23 3 -19 -4 3 -5 2 -10 -2 -10 -5 0 -14 9 -20 19 -11 17 -10 19 11 15 14 -2 29 3 37 13 10 11 10 14 2 9 -18 -10 -16 0 3 19 17 17 61 17 57 0z m67 -14 c0 -29 -11 -52 -21 -45 -5 3 -9 2 -8 -3 3 -19 -2 -31 -16 -37 -22 -8 -19 32 5 72 22 36 40 42 40 13z m-262 -13 c-3 -7 -13 -15 -24 -17 -16 -3 -17 -1 -5 13 16 19 34 21 29 4z m206 0 c-20 -36 -47 -69 -51 -64 -3 2 7 21 22 40 27 35 43 49 29 24z m-60 -64 c7 -19 -2 -37 -15 -28 -5 3 -7 9 -5 13 3 4 -1 8 -7 8 -7 0 -13 -11 -13 -23 0 -19 3 -21 15 -11 12 10 13 9 2 -11 -7 -13 -15 -21 -18 -19 -2 3 -18 1 -34 -3 -40 -12 -38 9 5 54 36 39 60 46 70 20z m-115 -60 c-14 -15 -34 -24 -52 -24 l-29 0 27 33 c31 36 68 51 73 29 2 -7 -6 -25 -19 -38z m161 35 c0 -22 -46 -89 -61 -89 -17 0 -9 30 17 70 29 44 44 51 44 19z m190 -44 c-22 -35 -40 -46 -40 -22 0 7 12 30 27 52 21 31 28 36 31 22 2 -9 -6 -33 -18 -52z m74 9 c24 -9 9 -23 -20 -18 -23 4 -25 2 -19 -18 4 -16 3 -19 -3 -9 -6 8 -12 9 -16 3 -13 -21 23 -20 38 1 8 12 15 18 15 12 0 -5 -7 -20 -17 -32 -12 -16 -24 -20 -44 -16 l-27 5 26 39 c26 39 37 44 67 33z m-156 -128 c-24 -37 -48 -47 -48 -20 0 8 15 33 33 56 28 35 32 38 35 20 2 -11 -7 -37 -20 -56z m75 16 c16 -7 15 -10 -8 -45 -27 -39 -32 -42 -54 -28 -10 6 -11 14 -3 27 11 19 45 29 39 11 -2 -7 -9 -12 -14 -12 -6 0 -14 -3 -18 -7 -4 -3 1 -5 11 -4 10 2 24 12 32 24 13 20 12 21 -7 17 -21 -4 -28 5 -14 18 7 8 12 8 36 -1z"/> <path d="M1071 696 c-7 -8 -8 -17 -3 -20 6 -3 15 1 21 8 7 8 8 17 3 20 -6 3 -15 -1 -21 -8z"/> <path d="M1137 943 c9 -73 19 -80 18 -13 0 41 -4 60 -12 60 -9 0 -11 -13 -6 -47z"/> <path d="M282 963 c-12 -2 -20 -8 -17 -12 6 -11 55 -1 55 10 0 5 -3 8 -7 8 -5 -1 -18 -4 -31 -6z"/> <path d="M2060 960 c0 -5 9 -10 20 -10 13 0 20 -7 20 -20 0 -13 -7 -20 -19 -20 -18 0 -19 -3 -9 -31 8 -23 13 -27 19 -17 13 20 12 -9 -2 -34 -6 -12 -7 -18 -1 -14 5 3 13 -1 16 -10 9 -24 28 -5 23 23 -4 20 -1 24 14 20 14 -4 19 0 19 16 -1 25 -24 72 -37 72 -4 0 -7 8 -6 18 2 13 -4 17 -27 17 -17 0 -30 -4 -30 -10z m80 -76 c0 -9 -5 -14 -12 -12 -18 6 -21 28 -4 28 9 0 16 -7 16 -16z"/> <path d="M416 935 c-4 -12 -1 -16 11 -13 18 3 21 20 5 26 -5 1 -12 -4 -16 -13z"/> <path d="M590 933 c0 -15 -8 -25 -24 -29 -13 -3 -27 -15 -30 -27 -9 -35 3 -33 40 7 27 29 32 41 24 54 -8 15 -9 14 -10 -5z"/> <path d="M457 906 c-4 -10 -5 -21 -2 -24 9 -9 17 6 13 25 -3 17 -4 17 -11 -1z"/> <path d="M111 884 c14 -17 39 -18 39 -1 0 6 -11 13 -25 13 -21 2 -24 -1 -14 -12z"/> <path d="M1712 861 c-11 -6 -10 -11 3 -25 9 -9 21 -16 28 -16 6 0 2 7 -9 15 -11 8 -14 15 -6 15 6 0 12 5 12 10 0 12 -10 13 -28 1z"/> <path d="M2056 854 c-3 -9 -2 -23 2 -31 8 -13 10 -13 15 1 4 11 3 15 -4 10 -8 -4 -9 1 -4 15 7 24 0 29 -9 5z"/> <path d="M982 837 c-12 -13 -18 -27 -13 -35 5 -8 14 -3 29 17 26 36 14 50 -16 18z"/> <path d="M457 843 c-4 -3 -7 -15 -7 -26 0 -16 3 -17 14 -8 11 9 15 9 18 0 2 -7 8 -6 17 5 12 14 12 16 -3 10 -11 -4 -16 -1 -16 10 0 16 -12 21 -23 9z"/> <path d="M2505 830 c1 -11 7 -26 14 -33 11 -10 12 -7 6 13 -10 33 -22 46 -20 20z"/> <path d="M1365 807 c-4 -17 -16 -44 -26 -59 -29 -40 -22 -47 10 -11 15 18 44 38 64 45 l36 13 -39 22 -38 23 -7 -33z"/> <path d="M2777 833 c-12 -11 -8 -21 12 -26 14 -3 18 -11 14 -26 -7 -26 12 -50 37 -48 10 1 17 4 14 8 -2 4 0 11 6 14 6 4 -2 22 -21 46 -29 37 -48 47 -62 32z m77 -62 c3 -5 -1 -14 -9 -21 -8 -7 -15 -10 -15 -7 0 3 -3 12 -6 21 -7 17 20 23 30 7z"/> <path d="M2840 825 c0 -8 5 -15 10 -15 6 0 10 7 10 15 0 8 -4 15 -10 15 -5 0 -10 -7 -10 -15z"/> <path d="M392 813 c5 -25 28 -28 28 -4 0 12 -6 21 -16 21 -9 0 -14 -7 -12 -17z"/> <path d="M2880 809 c-11 -8 -7 -9 18 -4 22 5 41 2 57 -9 30 -20 45 -20 45 -2 0 22 -93 34 -120 15z"/> <path d="M7 803 c-15 -15 -7 -43 13 -43 21 0 24 8 14 34 -7 17 -16 20 -27 9z"/> <path d="M1730 796 c0 -8 7 -16 15 -20 8 -3 15 -12 15 -21 0 -8 4 -15 9 -15 5 0 4 15 -2 35 -10 34 -37 49 -37 21z"/> <path d="M866 694 c-68 -81 -91 -103 -98 -93 -7 11 -8 9 -4 -4 4 -12 -6 -33 -29 -61 -19 -24 -35 -46 -35 -49 0 -3 -20 -27 -44 -54 -98 -105 -174 -206 -168 -221 4 -13 7 -12 13 4 4 10 23 37 43 59 32 37 35 38 42 20 4 -11 12 -23 18 -27 16 -11 37 13 31 33 -4 11 -2 19 5 19 6 0 8 -6 5 -12 -4 -7 5 -1 19 15 14 15 23 33 20 41 -3 8 4 17 18 21 13 4 31 11 41 14 17 6 17 7 -2 27 -11 12 -17 24 -14 27 3 3 9 21 13 39 3 18 12 32 18 31 6 -2 9 3 7 10 -6 15 52 80 65 72 11 -7 -5 -39 -48 -93 -30 -38 -33 -59 -5 -31 9 9 10 6 6 -12 -4 -13 -11 -27 -17 -31 -8 -6 -8 -8 0 -8 14 0 78 80 69 88 -3 3 -10 0 -15 -8 -5 -8 -12 -11 -15 -8 -12 11 6 30 24 25 19 -5 53 21 99 74 27 31 30 40 23 67 -5 17 -7 33 -3 36 5 6 12 96 8 96 -1 0 -42 -48 -90 -106z m74 32 c0 -18 -22 -56 -29 -51 -5 3 -13 0 -17 -6 -4 -8 -3 -9 4 -5 19 12 14 -6 -10 -31 -48 -51 -53 -9 -5 53 27 36 57 57 57 40z m-70 -151 c-1 -6 -10 -13 -21 -17 -17 -7 -18 -5 -9 13 11 20 33 23 30 4z m-160 -133 c0 -9 -25 -44 -55 -76 -41 -44 -59 -56 -67 -48 -8 8 1 24 37 61 27 28 53 57 57 66 12 20 28 19 28 -3z"/> <path d="M437 769 c-5 -20 -5 -20 14 -3 23 20 23 24 5 24 -7 0 -16 -9 -19 -21z"/> <path d="M869 761 c-14 -5 -15 -8 -4 -18 10 -10 16 -9 25 2 13 16 2 25 -21 16z"/> <path d="M1723 725 c0 -22 2 -30 4 -17 2 12 2 30 0 40 -3 9 -5 -1 -4 -23z"/> <path d="M2875 749 c-3 -4 3 -17 13 -27 24 -24 18 -46 -9 -31 -11 5 -17 14 -14 20 4 5 4 9 1 9 -3 0 -10 -10 -17 -21 -9 -17 -7 -26 8 -48 10 -14 27 -45 37 -68 14 -33 22 -40 32 -32 8 6 14 6 18 0 4 -5 2 -12 -4 -16 -5 -3 -10 -16 -10 -27 0 -20 -1 -20 -19 -4 -12 11 -21 13 -25 7 -7 -11 27 -33 45 -29 6 2 14 -3 17 -11 3 -9 0 -11 -8 -6 -9 5 -11 4 -6 -3 5 -9 13 -9 29 0 12 7 25 11 29 10 4 -1 5 4 2 12 -3 7 -12 13 -21 12 -9 0 -18 5 -20 11 -7 19 27 29 38 12 6 -9 8 2 7 31 -1 25 -8 51 -15 59 -9 8 -12 23 -9 37 5 18 0 26 -21 36 -18 9 -29 22 -31 40 -3 26 -36 45 -47 27z m84 -117 c7 -12 9 -27 6 -32 -4 -6 0 -12 7 -15 8 -3 14 -14 15 -25 2 -19 -17 -18 -43 1 -6 5 -14 6 -18 2 -4 -4 -4 0 -1 9 4 10 0 27 -9 40 -20 29 -20 42 0 34 12 -4 15 -2 10 9 -18 44 -18 48 1 25 11 -14 25 -35 32 -48z"/> <path d="M2970 752 c0 -4 7 -16 15 -26 15 -19 15 -19 15 1 0 11 -7 23 -15 27 -8 3 -15 2 -15 -2z"/> <path d="M2516 705 c-18 -28 -21 -39 -6 -30 6 4 7 -1 3 -11 -5 -15 -7 -14 -16 2 -5 11 -11 20 -12 22 -4 5 -75 -40 -75 -47 0 -21 33 -70 42 -65 7 4 8 2 4 -5 -7 -10 37 -112 67 -154 10 -14 9 -19 -2 -26 -11 -7 -9 -16 10 -50 12 -22 29 -41 37 -41 8 0 11 -7 8 -17 -7 -24 14 -57 39 -61 11 -2 38 -5 60 -8 32 -5 45 -13 63 -40 13 -19 20 -40 16 -46 -4 -6 -15 4 -26 26 -15 28 -22 35 -32 27 -7 -6 -17 -7 -21 -3 -5 4 -5 1 -1 -6 6 -11 11 -11 24 0 13 11 15 10 9 -5 -4 -11 -3 -16 3 -12 6 3 10 2 10 -4 0 -15 -18 -23 -25 -11 -4 6 -10 8 -15 5 -5 -3 -12 0 -17 7 -4 7 -16 14 -25 14 -14 1 -15 -2 -8 -17 19 -35 66 -47 87 -21 14 16 14 16 9 -1 -4 -12 -2 -16 6 -11 7 5 9 2 6 -8 -5 -12 0 -15 23 -13 24 2 29 -1 25 -14 -6 -14 -5 -15 6 0 7 9 19 14 26 12 16 -6 15 6 -3 37 -14 24 -19 17 -16 -20 1 -11 -1 -11 -9 3 -6 9 -8 22 -4 29 4 6 3 8 -3 5 -12 -8 -26 20 -17 34 3 5 10 6 16 3 6 -4 5 2 -2 15 -9 18 -30 21 -30 5 0 -3 5 -2 10 1 6 3 10 2 10 -4 0 -20 -19 -21 -25 -1 -4 12 -18 25 -31 30 -31 12 -31 25 1 28 14 1 25 -2 25 -7 0 -5 9 -11 21 -13 15 -2 35 -30 73 -100 28 -54 56 -96 61 -94 16 6 11 17 -102 222 -69 124 -112 194 -122 194 -10 0 -12 -3 -5 -8 6 -4 18 -27 28 -52 10 -25 22 -50 27 -57 7 -7 6 -19 -3 -32 -15 -24 -28 -27 -28 -7 0 8 -4 17 -8 20 -9 5 -13 -11 -13 -56 0 -27 -9 -35 -23 -21 -4 4 -17 8 -28 8 -12 0 -23 6 -25 13 -3 6 2 12 11 12 9 0 16 -5 16 -12 0 -9 3 -9 12 0 9 9 8 15 -6 25 -16 12 -17 17 -6 36 10 19 9 22 -1 16 -9 -6 -11 -3 -6 9 5 11 3 15 -5 10 -8 -5 -9 -2 -5 10 5 11 3 15 -5 10 -8 -5 -9 -2 -5 10 5 11 3 15 -5 10 -7 -5 -9 -2 -6 8 4 8 0 15 -7 15 -11 0 -11 -5 -4 -20 6 -10 9 -21 6 -23 -2 -3 -10 9 -17 26 -14 34 -4 55 21 45 18 -7 75 -103 71 -118 -2 -6 6 -3 17 8 16 13 18 21 9 26 -7 4 -16 5 -22 2 -5 -4 -7 1 -3 11 4 9 3 15 -2 12 -5 -3 -12 1 -15 10 -3 8 -2 12 3 9 5 -3 12 -1 16 5 3 5 1 10 -5 10 -6 0 -8 5 -5 10 6 9 -8 14 -28 11 -5 -1 -7 6 -5 16 2 12 12 18 30 18 19 -1 24 3 19 15 -10 25 -122 230 -126 230 -1 0 -10 -11 -19 -25z m55 -80 c22 -41 45 -75 50 -75 15 0 10 -36 -6 -50 -8 -7 -22 -10 -30 -6 -13 5 -14 10 -4 28 8 15 9 23 1 26 -6 2 -8 11 -5 20 4 14 3 15 -6 2 -5 -8 -13 -11 -17 -7 -4 3 -1 15 7 24 13 16 12 17 -3 4 -21 -15 -24 -2 -5 18 10 11 9 12 -2 6 -11 -6 -13 -4 -8 9 5 11 3 15 -5 10 -8 -5 -9 -2 -5 9 11 28 -1 19 -18 -13 -10 -20 -12 -29 -4 -28 6 2 14 -3 17 -11 3 -9 0 -11 -8 -6 -9 6 -9 3 0 -14 6 -12 15 -19 19 -16 14 8 23 -28 9 -37 -24 -15 -42 -3 -67 44 -14 26 -28 43 -32 37 -3 -6 -6 3 -5 19 1 37 8 34 31 -18 17 -38 46 -60 30 -22 -5 9 -8 25 -9 34 0 9 -3 15 -7 13 -3 -3 -11 7 -17 20 -6 14 -7 27 -2 30 11 7 23 -12 16 -24 -7 -11 13 -9 32 3 7 4 10 16 7 27 -13 39 6 17 46 -56z m-26 -145 c-3 -5 -13 -10 -21 -10 -8 0 -14 5 -14 10 0 6 9 10 21 10 11 0 17 -4 14 -10z m40 -115 c-4 11 1 7 10 -8 9 -16 14 -31 11 -35 -3 -3 -6 0 -6 6 0 6 -7 9 -16 5 -20 -7 -44 21 -44 51 1 19 3 18 26 -9 18 -22 23 -25 19 -10z m173 -57 c14 -14 16 -48 3 -48 -22 0 -41 13 -41 29 0 31 18 39 38 19z"/> <path d="M0 697 c0 -15 4 -27 9 -27 17 0 19 15 5 35 -13 18 -14 18 -14 -8z"/> <path d="M56 693 c4 -16 13 -36 22 -45 13 -16 13 -18 -1 -24 -9 -3 -21 -3 -27 1 -5 3 -10 4 -10 1 0 -3 9 -10 20 -16 23 -12 45 -2 45 20 0 8 9 16 20 19 22 4 35 18 35 40 0 9 -14 2 -35 -19 -33 -32 -35 -33 -36 -12 -1 12 -2 28 -3 35 -1 13 -16 27 -29 27 -4 0 -4 -12 -1 -27z"/> <path d="M1760 693 c0 -11 7 -20 15 -20 18 0 16 28 -2 35 -8 2 -13 -5 -13 -15z"/> <path d="M2596 643 c21 -38 40 -72 44 -78 15 -21 290 -524 290 -530 0 -3 -4 -4 -9 -1 -5 4 -7 -3 -4 -14 3 -11 9 -20 14 -20 5 0 6 6 3 14 -3 8 -1 17 4 20 5 3 9 -2 8 -12 -1 -12 8 -18 27 -20 15 -2 27 2 27 8 0 22 -71 151 -80 145 -12 -7 6 -45 21 -45 6 0 7 -4 4 -10 -3 -5 -1 -10 6 -10 7 0 10 -3 6 -6 -3 -4 0 -13 8 -21 24 -23 17 -35 -10 -17 -19 13 -115 171 -115 191 0 3 12 -2 26 -12 15 -10 35 -14 49 -11 26 7 37 -17 -113 244 -13 24 -23 45 -20 47 4 5 208 -348 208 -361 0 -4 -7 1 -15 13 -8 11 -27 25 -43 31 -24 8 -28 7 -28 -9 0 -12 4 -15 11 -9 16 13 54 -16 71 -54 13 -29 13 -28 9 33 -3 35 -10 70 -16 77 -6 7 -7 19 -3 25 4 7 3 9 -3 6 -11 -7 -108 131 -100 140 3 2 13 -9 23 -26 17 -29 34 -41 34 -23 0 12 -55 63 -62 57 -3 -3 -22 22 -42 55 -21 33 -41 58 -46 55 -10 -6 -60 80 -67 115 -5 30 -9 34 -23 25 -8 -5 -8 -11 -1 -19 6 -7 8 -16 4 -19 -3 -4 3 -17 14 -30 26 -29 73 -110 73 -127 0 -25 -41 23 -71 83 -16 31 -32 57 -34 57 -3 0 4 -18 15 -40 11 -22 17 -40 12 -40 -17 0 -50 46 -86 118 -20 39 -41 72 -47 72 -5 0 7 -30 27 -67z m158 -198 c14 -13 26 -29 26 -34 0 -6 6 -8 13 -5 18 6 38 -18 82 -99 42 -76 41 -96 -1 -43 -16 19 -31 31 -34 26 -9 -15 -53 37 -95 113 -38 70 -36 84 9 42z"/> <path d="M2794 374 c9 -8 14 -20 11 -25 -4 -5 -1 -9 5 -9 6 0 8 -5 4 -12 -4 -7 -3 -8 4 -4 14 8 -12 66 -29 66 -6 0 -3 -7 5 -16z"/> <path d="M1575 663 c-36 -54 -33 -68 20 -83 25 -7 45 -17 45 -21 0 -5 -4 -9 -8 -9 -5 0 -16 -16 -26 -36 -9 -20 -19 -34 -22 -31 -3 3 2 19 10 36 9 16 16 32 16 35 0 3 -56 26 -66 26 -1 0 -25 -29 -54 -65 -30 -39 -55 -63 -62 -59 -7 4 -8 3 -4 -5 8 -12 -62 -110 -79 -111 -10 0 -38 -60 -32 -67 4 -3 61 15 93 30 29 12 57 -3 44 -23 -6 -9 -10 -10 -10 -3 0 6 -7 10 -16 9 -16 -2 -34 -24 -34 -41 0 -5 4 -4 9 4 7 11 10 9 16 -8 6 -20 25 -20 25 0 0 6 -4 7 -10 4 -5 -3 -10 -2 -10 4 0 5 5 13 10 16 6 3 10 0 10 -7 0 -7 30 40 67 106 37 65 69 114 71 108 1 -5 14 -7 27 -4 23 4 32 24 26 56 -1 5 4 13 11 17 18 12 -2 42 -33 49 -29 7 -37 43 -15 66 15 14 22 44 11 44 -2 0 -16 -17 -30 -37z m-14 -143 c16 -9 17 -15 9 -31 -6 -11 -15 -17 -19 -14 -5 2 -8 -3 -7 -12 1 -19 -14 -26 -33 -14 -13 8 -12 15 4 45 22 41 20 39 46 26z m-55 -114 c5 -14 -21 -76 -32 -76 -3 0 -14 5 -25 10 -18 10 -18 11 4 45 23 37 44 45 53 21z m-96 -66 c0 -5 -9 -14 -20 -20 -22 -12 -27 -1 -8 18 14 14 28 16 28 2z"/> <path d="M1470 389 c-10 -17 -9 -20 1 -14 9 6 11 3 6 -11 -7 -18 -7 -18 8 0 17 23 19 33 6 41 -6 3 -15 -4 -21 -16z"/> <path d="M345 680 c-3 -5 -18 -10 -33 -10 -45 0 -70 -11 -75 -31 -6 -21 -37 -27 -37 -7 0 9 -3 9 -11 1 -8 -8 -6 -18 6 -37 16 -24 20 -25 39 -13 11 8 22 26 24 41 3 24 7 27 31 21 21 -4 32 0 51 20 13 14 21 25 17 25 -3 0 -9 -4 -12 -10z"/> <path d="M2030 690 c-1 -20 40 -104 53 -106 13 -2 14 3 5 28 -8 23 -13 27 -20 16 -7 -9 -8 -4 -4 17 3 17 3 24 -1 16 -4 -10 -9 -8 -19 10 -7 13 -13 22 -14 19z"/> <path d="M2779 617 c25 -40 27 -54 6 -37 -20 16 -29 7 -20 -19 7 -22 25 -29 25 -11 0 16 44 30 52 16 13 -20 9 -28 -12 -23 -25 6 -26 -8 -2 -25 10 -7 29 -33 42 -58 14 -25 43 -67 66 -95 22 -27 45 -58 51 -68 8 -15 10 -7 11 35 2 42 -3 59 -21 82 -20 25 -23 26 -23 8 0 -11 3 -19 7 -16 4 2 10 -3 13 -12 9 -23 8 -24 -16 -20 -14 2 -22 10 -22 20 1 9 -3 13 -9 9 -6 -4 -8 0 -4 10 4 10 2 16 -5 14 -6 -1 -13 4 -16 12 -3 9 0 11 8 6 9 -6 9 -3 0 14 -6 12 -15 19 -20 16 -9 -6 -30 25 -30 44 0 6 6 11 14 11 16 0 13 47 -3 63 -13 13 -15 -3 -3 -19 4 -5 -2 1 -13 13 -24 27 -37 30 -28 7 4 -12 2 -15 -8 -12 -8 3 -13 11 -11 17 1 6 -3 11 -9 11 -5 0 -8 4 -5 8 2 4 -5 14 -16 21 -21 13 -21 13 1 -22z"/> <path d="M1750 633 c0 -14 30 -53 41 -53 5 0 9 7 9 15 0 8 -7 15 -15 15 -8 0 -14 5 -12 11 1 6 -4 14 -10 16 -7 3 -13 1 -13 -4z"/> <path d="M206 543 c-45 -38 -74 -69 -67 -71 8 -3 45 28 85 67 39 39 69 71 66 71 -3 0 -41 -30 -84 -67z"/> <path d="M32 560 c-19 -10 -29 -21 -23 -25 14 -8 63 16 69 33 5 16 -7 14 -46 -8z"/> <path d="M730 571 c0 -5 -14 -12 -30 -16 -38 -8 -58 -40 -30 -48 18 -4 33 8 69 56 9 11 10 17 2 17 -6 0 -11 -4 -11 -9z"/> <path d="M110 546 c0 -13 -10 -30 -22 -39 -22 -14 -22 -16 -4 -23 26 -10 52 9 48 35 -2 12 3 24 12 27 25 9 19 24 -9 24 -20 0 -25 -5 -25 -24z"/> <path d="M2423 559 c3 -9 1 -21 -5 -27 -13 -13 4 -23 21 -12 11 6 10 12 -4 31 -10 13 -15 17 -12 8z"/> <path d="M1742 525 c0 -19 4 -32 9 -29 5 3 9 18 9 35 0 16 -4 29 -9 29 -5 0 -9 -16 -9 -35z"/> <path d="M988 525 c-11 -13 -25 -22 -29 -19 -5 3 -7 -1 -4 -8 8 -21 -27 -57 -62 -64 -42 -8 -43 7 -2 61 16 22 25 41 20 43 -20 7 -50 -19 -97 -83 -26 -36 -55 -65 -65 -65 -23 0 -41 -24 -33 -44 4 -10 1 -16 -9 -16 -8 0 -20 -7 -27 -15 -11 -13 -8 -16 18 -21 17 -4 39 -15 48 -25 16 -18 16 -19 -4 -19 -14 0 -22 6 -22 18 -1 16 -2 16 -15 -2 -13 -17 -15 -17 -30 -2 -9 9 -18 16 -19 16 -9 0 -94 -118 -89 -124 3 -3 1 -6 -5 -6 -10 0 -45 -60 -39 -67 2 -1 26 3 53 11 27 8 65 14 83 14 22 1 41 8 50 20 9 11 25 18 36 16 12 -2 28 7 42 24 28 34 28 42 3 37 -22 -4 -26 5 -9 22 7 7 23 8 46 3 38 -9 55 -20 31 -20 -19 0 -75 -70 -56 -70 15 -1 -61 -39 -78 -40 -6 0 -40 -9 -75 -19 -35 -11 -85 -22 -111 -26 -34 -4 -51 -12 -62 -30 -15 -22 -15 -25 -1 -25 8 0 15 5 15 10 0 6 7 10 15 10 8 0 15 -5 15 -12 0 -6 3 -8 8 -4 4 4 7 13 7 19 0 7 9 13 19 15 13 3 17 0 13 -11 -3 -9 1 -17 13 -20 15 -4 20 1 22 22 2 21 8 26 28 25 14 -1 29 5 35 12 14 18 95 31 95 15 0 -7 -13 -17 -30 -22 -16 -6 -27 -15 -24 -20 3 -5 10 -6 16 -3 7 5 9 0 6 -13 -4 -16 0 -20 23 -21 18 0 30 5 34 17 7 23 40 24 61 0 38 -42 52 -29 183 171 69 104 126 188 128 186 2 -2 -12 -29 -32 -60 -36 -56 -36 -57 -19 -86 17 -27 34 -32 34 -9 0 6 -4 8 -9 4 -21 -12 -20 16 0 58 13 27 27 43 35 40 14 -5 38 33 29 47 -3 6 -13 10 -21 10 -9 0 -14 3 -12 8 2 4 10 19 17 33 11 23 10 30 -9 60 -14 22 -20 27 -18 14 2 -11 -3 -20 -9 -20 -7 0 -13 -4 -12 -8 0 -5 -8 -15 -18 -23 -10 -7 -14 -14 -9 -14 14 0 -15 -30 -30 -30 -18 0 -9 24 33 84 19 26 31 52 26 56 -4 5 -59 -67 -121 -158 -197 -292 -254 -373 -259 -368 -3 3 4 18 15 34 12 15 22 35 24 42 2 8 12 22 23 32 11 9 16 17 10 18 -5 0 1 7 14 16 18 13 20 18 10 25 -11 7 -11 9 2 9 15 0 89 99 89 118 0 4 9 15 20 25 11 9 20 28 20 42 0 18 4 23 15 19 8 -4 15 -1 15 5 0 6 -5 11 -11 11 -6 0 -9 9 -6 20 6 23 -3 26 -21 8 -9 -9 -12 -7 -12 10 0 13 6 22 15 22 7 0 19 8 24 18 8 12 10 13 11 3 0 -8 3 -12 6 -8 3 3 3 11 -1 17 -5 8 -13 6 -28 -7 -20 -18 -20 -18 -3 8 11 18 23 25 35 22 10 -3 22 1 26 8 5 8 4 10 -3 5 -7 -4 -12 -2 -12 3 0 19 -19 12 -42 -14z m175 -79 c7 -17 -52 -106 -69 -106 -20 0 -17 28 6 57 11 14 17 29 15 34 -3 4 4 6 15 4 17 -3 19 -1 10 15 -8 16 -7 18 4 14 8 -3 17 -11 19 -18z m-319 -17 c-3 -5 -13 -9 -22 -8 -11 0 -12 2 -4 6 6 2 10 9 7 14 -4 5 1 6 9 3 9 -3 13 -10 10 -15z m106 -13 c0 -8 5 -16 12 -18 7 -3 -5 -27 -31 -62 -32 -43 -48 -56 -63 -54 -30 4 -32 21 -8 49 11 13 18 17 15 8 -4 -9 0 -16 9 -16 8 0 12 6 8 15 -3 9 -1 13 5 9 6 -4 17 1 24 10 8 9 9 14 3 10 -6 -3 -16 4 -22 17 -9 21 -8 23 16 19 15 -2 21 0 14 3 -6 3 -10 10 -6 15 8 14 24 11 24 -5z m-83 -24 c8 -5 5 -18 -11 -45 -13 -20 -26 -34 -30 -30 -4 4 -4 0 -1 -9 5 -13 -1 -18 -30 -24 -57 -10 -61 11 -13 68 38 46 60 56 85 40z m183 -47 c0 -15 -5 -24 -12 -22 -8 1 -12 -6 -10 -16 2 -9 -1 -16 -5 -15 -4 2 -9 -1 -10 -6 -1 -5 -7 -12 -15 -17 -7 -5 -13 -12 -13 -17 0 -10 -31 -42 -41 -42 -3 0 -1 6 5 14 7 8 11 21 9 28 -4 16 67 118 82 118 5 0 10 -11 10 -25z m140 18 c0 -17 -19 -37 -27 -29 -4 5 -2 11 5 13 6 3 10 9 6 14 -3 5 0 9 5 9 6 0 11 -3 11 -7z m-120 -70 c0 -9 -16 -37 -36 -64 -33 -46 -49 -55 -100 -63 -11 -2 -18 -10 -16 -20 2 -9 -3 -15 -10 -14 -8 2 -12 -4 -10 -16 2 -10 -1 -15 -6 -12 -9 6 -29 -11 -31 -26 -2 -15 -16 -11 -19 5 -4 18 63 117 78 117 5 0 12 -4 15 -10 11 -18 45 -11 45 9 0 11 5 23 11 26 6 4 8 13 5 21 -3 8 0 13 7 11 7 -1 11 6 11 15 -1 10 3 16 10 15 6 -1 10 5 10 14 -1 11 5 15 17 12 11 -3 19 -12 19 -20z m-180 -44 c0 -10 -7 -11 -37 -3 -34 9 -28 21 7 16 17 -2 30 -8 30 -13z m-151 -18 c12 -7 9 -18 -14 -58 -15 -26 -29 -49 -30 -51 -1 -1 -17 4 -36 10 -35 13 -51 38 -23 38 8 0 12 -4 9 -10 -3 -5 -3 -10 2 -11 4 0 18 -2 31 -5 12 -2 22 1 22 7 0 5 -4 7 -10 4 -5 -3 -10 -2 -10 4 0 5 5 13 10 16 6 3 10 1 10 -6 0 -16 11 -5 14 13 1 7 5 18 9 25 5 8 1 11 -11 10 -11 0 -19 -8 -18 -16 1 -9 -6 -16 -14 -16 -9 0 -14 -8 -12 -20 2 -20 2 -20 -9 -1 -10 17 -7 24 20 48 34 31 39 32 60 19z m-79 -6 c0 -10 -41 -46 -49 -43 -17 6 9 48 29 48 11 0 20 -2 20 -5z m117 -48 c-14 -22 -52 -34 -40 -14 14 25 23 34 38 34 13 0 13 -3 2 -20z m194 -26 c-7 -5 -11 -13 -7 -19 7 -11 -69 -112 -84 -112 -13 0 -13 37 0 45 15 9 12 27 -2 19 -8 -4 -10 -3 -5 2 5 5 12 9 16 9 5 0 22 15 39 33 16 17 36 32 44 32 11 0 11 -2 -1 -9z"/> <path d="M793 349 c-13 -15 -23 -31 -23 -35 0 -4 7 1 16 12 15 19 16 19 9 -1 -4 -14 1 -12 19 10 14 17 25 35 25 40 1 6 -3 4 -8 -4 -5 -7 -10 -9 -12 -4 -2 6 -14 -2 -26 -18z"/> <path d="M1046 495 c-34 -66 -30 -92 5 -39 67 102 64 94 42 94 -14 0 -28 -17 -47 -55z"/> <path d="M912 505 c-24 -38 -20 -45 11 -17 19 17 20 16 8 -8 -11 -23 -11 -24 3 -6 9 10 13 23 10 27 -3 5 -2 14 2 20 5 8 9 8 14 -1 5 -9 9 -8 12 2 4 9 -2 14 -16 16 -14 1 -28 -10 -44 -33z"/> <path d="M1790 520 c0 -19 5 -25 17 -22 7 2 13 -4 13 -12 0 -10 -11 -14 -42 -13 -27 1 -43 -3 -46 -12 -3 -9 2 -11 17 -6 23 7 86 -3 76 -13 -3 -3 -28 -5 -55 -3 -73 4 -60 -23 15 -33 11 -2 28 -6 38 -11 14 -6 17 -2 17 20 0 46 -22 115 -36 115 -8 0 -14 -4 -14 -10z"/> <path d="M10 475 c-12 -32 -9 -74 5 -72 5 1 9 -4 7 -12 -3 -12 0 -12 13 -1 11 10 13 16 4 26 -6 8 -15 11 -20 8 -5 -3 -9 4 -9 15 0 12 6 21 14 21 7 0 19 6 25 14 9 11 8 15 -5 20 -23 9 -24 8 -34 -19z"/> <path d="M2406 491 c-3 -5 0 -13 7 -19 7 -6 28 -42 46 -81 19 -38 38 -68 43 -65 15 9 22 -28 9 -49 -9 -14 -10 -22 -1 -31 10 -10 60 -17 60 -9 0 2 -21 45 -46 95 -28 56 -42 94 -35 96 8 3 8 9 0 24 -6 11 -17 17 -25 14 -8 -3 -20 3 -26 14 -14 22 -24 25 -32 11z"/> <path d="M1850 474 c0 -8 7 -46 16 -85 13 -56 19 -69 35 -69 10 0 19 5 19 10 0 6 -5 10 -11 10 -5 0 -7 5 -4 10 9 15 -5 51 -17 44 -7 -5 -9 1 -5 15 6 25 -10 81 -24 81 -5 0 -9 -7 -9 -16z"/> <path d="M2226 428 c29 -75 30 -76 30 -33 0 19 -3 30 -7 23 -4 -6 -12 6 -20 30 -7 23 -16 42 -20 42 -4 0 3 -28 17 -62z"/> <path d="M1683 472 c-5 -4 -13 -15 -16 -26 -4 -10 -13 -16 -20 -13 -8 3 -20 1 -28 -4 -10 -6 -7 -9 14 -9 15 0 27 -6 27 -12 1 -8 6 -5 15 5 7 11 11 26 8 35 -4 8 -2 13 3 9 6 -3 16 -2 23 2 10 7 10 9 -2 14 -7 3 -18 2 -24 -1z"/> <path d="M72 446 l28 -12 -38 -37 c-21 -20 -43 -37 -50 -37 -7 0 -12 -7 -12 -15 0 -8 4 -15 8 -15 13 0 112 104 112 118 0 7 -14 12 -37 11 l-38 -1 27 -12z"/> <path d="M1281 432 c-26 -36 -26 -41 -3 -37 9 1 16 9 14 18 -1 8 2 18 8 22 6 4 8 -1 4 -12 -5 -17 -5 -17 6 0 22 34 -5 42 -29 9z"/> <path d="M1535 388 c-19 -33 -34 -62 -32 -64 6 -6 57 20 57 29 0 5 -4 5 -10 2 -15 -9 -12 0 11 39 12 20 25 33 30 30 5 -3 9 -1 9 4 0 6 -6 12 -14 15 -10 4 -26 -14 -51 -55z"/> <path d="M1197 406 c-6 -14 1 -26 14 -26 4 0 9 8 12 18 2 9 4 1 3 -18 -1 -19 -16 -59 -33 -89 -18 -30 -30 -58 -28 -62 6 -9 55 1 55 11 0 5 -5 10 -11 12 -8 3 -2 19 15 45 24 35 31 40 49 33 25 -9 24 -21 -4 -66 -12 -20 -32 -35 -59 -43 -32 -9 -48 -23 -70 -58 -17 -26 -33 -62 -36 -80 -3 -18 -10 -36 -15 -39 -5 -3 -7 -10 -4 -15 4 -5 1 -9 -4 -9 -6 0 -11 -4 -11 -10 0 -19 22 -10 27 10 3 12 21 27 39 35 37 15 45 35 16 35 -31 0 -31 10 0 61 26 40 35 48 52 43 36 -11 37 -19 6 -62 -37 -52 -37 -56 -2 -38 28 15 28 15 108 234 34 94 31 118 -11 67 -23 -29 -65 -25 -65 6 0 22 -35 26 -43 5z"/> <path d="M1350 384 c-14 -36 -7 -41 14 -10 10 15 12 27 6 31 -6 3 -15 -6 -20 -21z"/> <path d="M1690 383 c-19 -9 -21 -13 -7 -13 9 0 26 -6 37 -12 17 -11 22 -10 29 0 6 10 14 10 42 -2 69 -28 78 -29 72 -7 -6 23 -41 33 -96 27 -22 -2 -40 1 -45 8 -5 10 -13 9 -32 -1z"/> <path d="M104 348 l-29 -33 33 29 c30 28 37 36 29 36 -2 0 -16 -15 -33 -32z"/> <path d="M2410 323 c0 -12 5 -25 11 -28 17 -11 18 -2 4 25 -14 24 -14 24 -15 3z"/> <path d="M380 305 c-12 -13 -26 -22 -31 -20 -4 3 -10 2 -13 -3 -13 -21 26 -6 51 20 15 15 24 28 22 28 -3 0 -16 -11 -29 -25z"/> <path d="M1236 290 l-17 -35 21 25 c15 17 20 19 16 8 -8 -25 1 -22 15 3 6 13 7 19 1 15 -6 -3 -12 0 -15 6 -2 7 -12 -3 -21 -22z"/> <path d="M1795 303 c4 -10 22 -60 41 -111 19 -51 41 -106 49 -122 9 -17 13 -30 9 -30 -4 0 -1 -6 5 -13 6 -8 8 -17 4 -20 -3 -4 -1 -7 5 -7 18 0 16 8 -38 151 -27 73 -50 136 -50 141 0 4 10 8 23 9 21 1 21 1 -3 9 -42 13 -53 12 -45 -7z"/> <path d="M1485 300 c-6 -10 30 -79 49 -92 5 -3 60 -9 121 -13 l112 -7 12 -81 c6 -44 12 -81 13 -82 2 -2 19 -6 38 -10 l35 -7 -31 29 c-25 24 -33 40 -39 88 -8 71 -22 84 -90 85 -134 3 -188 25 -182 75 2 21 -27 33 -38 15z"/> <path d="M1137 272 c-15 -30 -14 -32 3 -32 21 0 30 18 20 44 -6 18 -8 16 -23 -12z"/> <path d="M2 269 c1 -12 10 -24 18 -26 12 -4 13 -3 1 5 -7 5 -11 14 -7 20 3 6 1 14 -5 17 -7 5 -9 -1 -7 -16z"/> <path d="M1852 282 c-10 -7 -1 -39 38 -142 27 -73 50 -135 50 -137 0 -2 5 -3 10 -3 6 0 10 7 10 15 0 9 9 15 25 15 16 0 25 -6 25 -15 0 -8 5 -15 11 -15 6 0 9 6 6 12 -2 7 -24 73 -48 146 l-43 132 -36 0 c-19 0 -41 -4 -48 -8z m64 -30 c6 -4 23 -38 37 -77 l25 -70 -31 0 c-28 0 -31 4 -54 69 -18 54 -20 72 -10 78 15 10 19 10 33 0z m58 -193 c-8 -14 -34 -10 -34 5 0 9 7 12 20 9 11 -3 17 -9 14 -14z"/> <path d="M1896 224 c-9 -24 -7 -31 5 -14 9 12 10 10 6 -8 -7 -30 10 -79 27 -79 11 0 9 13 -6 59 -11 32 -21 58 -23 58 -2 0 -6 -7 -9 -16z"/> <path d="M37 274 c7 -3 9 -12 6 -20 -3 -8 1 -14 10 -14 16 0 30 24 20 34 -4 3 -16 6 -27 5 -12 0 -16 -3 -9 -5z"/> <path d="M1343 262 c-41 -16 -43 -19 -77 -112 -20 -52 -37 -102 -38 -110 -2 -8 -7 -18 -13 -22 -13 -9 1 -22 15 -13 6 4 9 13 6 21 -3 8 1 14 10 14 11 0 14 -6 10 -16 -3 -8 -2 -12 4 -9 6 3 10 2 10 -2 0 -5 8 -9 18 -10 25 -2 140 206 121 218 -8 5 -20 9 -26 9 -16 0 -16 6 -3 31 6 10 9 18 8 18 -2 -1 -22 -9 -45 -17z m42 -81 c4 -7 -20 -60 -41 -89 -5 -8 -44 10 -44 20 0 6 9 26 21 44 20 32 51 45 64 25z m-76 -120 c10 -7 11 -13 2 -30 -14 -26 -24 -28 -17 -3 4 12 1 19 -8 19 -8 0 -12 -7 -9 -16 3 -12 2 -12 -7 2 -19 29 7 48 39 28z"/> <path d="M1329 148 c-19 -27 -20 -30 -4 -18 17 14 18 13 12 -5 -6 -17 -4 -17 13 4 22 26 25 37 11 46 -5 3 -20 -9 -32 -27z"/> <path d="M96 257 c3 -8 14 -17 25 -20 10 -3 19 -10 19 -16 0 -19 -28 -24 -80 -14 -39 8 -50 7 -54 -4 -4 -9 4 -13 30 -13 24 0 34 -4 31 -12 -2 -7 -11 -13 -20 -13 -9 0 -17 -5 -18 -10 0 -6 -7 -18 -16 -27 -8 -9 -13 -21 -12 -27 2 -6 26 10 53 35 39 37 53 44 74 39 25 -6 25 -7 -29 -63 -30 -31 -55 -59 -57 -61 -2 -3 -12 0 -22 7 -17 10 -20 10 -20 -3 0 -8 7 -15 15 -15 18 0 20 -16 2 -24 -6 -3 -2 -3 11 0 13 3 29 0 37 -6 18 -15 69 -9 158 18 72 22 84 21 40 -2 -26 -13 -26 -15 -9 -22 15 -6 28 3 57 37 21 24 39 47 39 50 0 3 -21 -4 -47 -17 -27 -13 -58 -24 -70 -24 -12 0 -25 -4 -28 -10 -10 -16 -35 -11 -35 7 0 14 -4 13 -24 -6 -15 -14 -26 -19 -31 -12 -3 6 -18 11 -33 12 -25 0 -26 1 -7 12 10 7 40 33 66 59 44 43 50 46 83 38 28 -6 38 -4 52 11 14 16 14 19 3 19 -8 0 -21 -6 -27 -12 -10 -10 -17 -10 -32 0 -12 7 -21 8 -25 2 -10 -16 -35 -12 -42 6 -3 10 0 22 8 28 18 13 20 56 3 56 -6 0 -26 3 -43 6 -26 5 -30 4 -25 -9z"/> <path d="M546 225 c-29 -35 -32 -42 -16 -38 11 3 20 9 20 14 0 4 12 14 27 21 31 15 40 33 19 41 -9 4 -28 -10 -50 -38z"/> <path d="M1451 239 l-21 -34 29 -8 c28 -7 29 -8 19 -49 -5 -24 -11 -59 -13 -78 -2 -19 -7 -44 -10 -55 -7 -18 -6 -18 9 2 9 12 13 29 9 39 -5 13 -3 15 7 9 8 -5 11 -4 6 3 -3 6 6 33 20 59 l27 48 -31 49 -30 50 -21 -35z"/> <path d="M220 237 c0 -8 -7 -18 -16 -21 -8 -3 -13 -10 -10 -15 8 -13 47 -1 53 15 3 8 19 14 35 14 29 0 30 -2 25 -30 -7 -31 9 -43 19 -15 4 9 18 22 32 29 25 13 24 13 -24 20 -27 4 -64 10 -81 13 -25 4 -33 2 -33 -10z"/> <path d="M1057 210 c-10 -17 -13 -30 -8 -30 6 0 11 -5 11 -11 0 -6 -6 -9 -14 -6 -9 4 -33 -23 -70 -78 l-55 -84 39 2 39 1 47 103 c42 93 48 101 61 85 10 -12 10 -8 -2 16 -19 40 -26 40 -48 2z"/> <path d="M2331 232 c-1 -7 -5 -11 -10 -8 -5 4 -7 -3 -4 -14 8 -28 22 -35 16 -8 -4 22 -3 22 11 -2 17 -29 23 -67 6 -40 -11 17 -12 4 -1 -24 7 -18 42 -33 41 -18 -2 16 -58 126 -59 114z"/> <path d="M2480 237 c0 -17 65 -139 78 -147 11 -6 12 -10 4 -10 -18 0 24 -80 43 -80 9 0 12 6 8 16 -4 12 -2 15 8 12 8 -3 13 -11 12 -17 -2 -6 4 -11 12 -11 28 0 15 18 -30 45 -25 14 -43 30 -40 35 3 5 1 11 -5 15 -6 4 -8 11 -5 16 4 5 2 9 -4 9 -6 0 -20 22 -32 50 -18 42 -49 84 -49 67z"/> <path d="M383 205 c-15 -17 -17 -29 -4 -20 17 10 23 -15 7 -31 -9 -8 -16 -20 -16 -27 0 -6 16 8 35 30 26 30 40 40 55 36 12 -3 20 0 20 7 0 7 -7 10 -15 6 -8 -3 -15 -1 -15 4 0 15 -53 11 -67 -5z"/> <path d="M2226 200 c11 -42 24 -73 29 -68 3 3 -4 25 -15 49 -11 24 -17 33 -14 19z"/> <path d="M2555 186 c0 -13 4 -22 9 -18 5 3 7 -1 4 -9 -4 -10 3 -14 23 -15 24 -1 27 2 19 17 -12 21 -39 49 -48 49 -4 0 -7 -11 -7 -24z"/> <path d="M2152 142 c24 -67 33 -79 42 -57 3 9 2 14 -3 11 -13 -8 -23 23 -16 48 5 15 4 17 -3 8 -7 -11 -10 -10 -16 3 -10 26 -7 42 5 25 8 -12 10 -12 7 -1 -2 8 -11 15 -21 17 -14 2 -14 -4 5 -54z"/> <path d="M2250 193 c0 -13 39 -103 45 -103 5 0 -34 102 -41 109 -2 2 -4 0 -4 -6z"/> <path d="M1377 105 c-51 -91 -53 -95 -34 -94 6 0 24 26 40 59 29 62 61 89 53 45 -3 -14 -7 -33 -9 -43 -16 -58 -17 -72 -4 -72 10 0 19 25 28 78 18 100 18 104 -7 108 -17 3 -29 -12 -67 -81z"/> <path d="M1542 184 c4 -4 3 -13 -3 -21 -9 -10 -7 -13 11 -13 18 0 21 -4 16 -22 -4 -13 -8 -28 -9 -34 -2 -9 -30 -49 -57 -81 -8 -10 -6 -13 10 -13 11 0 20 5 20 11 0 5 5 7 12 3 6 -4 8 -3 5 4 -11 17 4 42 24 42 23 0 24 -9 3 -38 -14 -20 -14 -22 1 -22 8 0 21 11 27 25 6 14 19 25 30 25 21 0 22 -4 8 -31 -9 -16 -7 -19 10 -19 17 0 29 17 59 83 l39 82 -32 6 c-55 12 -181 21 -174 13z m92 -49 c-4 -8 -11 -12 -17 -8 -5 3 -7 1 -4 -5 11 -17 -4 -42 -24 -42 -23 0 -24 18 -3 48 17 25 57 31 48 7z m66 5 c0 -3 -9 -20 -20 -37 -13 -22 -25 -31 -35 -27 -18 7 -18 4 0 42 10 20 23 30 35 29 11 -1 20 -4 20 -7z"/> <path d="M1165 150 c-19 -38 -19 -49 1 -24 15 19 16 19 10 -1 -4 -15 0 -12 19 10 17 21 21 31 12 37 -20 13 -26 9 -42 -22z"/> <path d="M465 132 c5 -34 4 -42 -8 -42 -11 0 -13 7 -10 21 6 20 3 21 -23 15 -29 -7 -113 -90 -114 -113 -1 -32 39 -9 79 45 31 42 41 50 36 30 -5 -19 -2 -29 12 -36 14 -9 16 -13 6 -23 -11 -11 -13 -10 -13 0 0 11 -3 11 -15 1 -20 -17 -19 -27 4 -25 26 2 53 25 47 40 -2 7 9 22 25 34 26 19 44 71 19 56 -6 -3 -7 1 -4 9 3 9 2 16 -4 16 -6 0 -18 3 -27 7 -15 5 -16 1 -10 -35z"/> <path d="M69 123 l-34 -38 38 34 c34 33 42 41 34 41 -2 0 -19 -17 -38 -37z"/> <path d="M1052 94 c-25 -49 -30 -70 -22 -78 8 -8 9 -6 4 8 -5 13 -4 17 4 12 14 -8 36 30 26 46 -5 8 -2 9 10 5 22 -8 31 14 19 48 -8 24 -10 22 -41 -41z"/> <path d="M1749 140 c-7 -20 -4 -109 5 -117 16 -17 22 17 12 72 -6 33 -14 53 -17 45z"/> <path d="M152 101 c-32 -40 -40 -57 -23 -46 17 10 73 85 64 85 -6 0 -24 -18 -41 -39z"/> <path d="M252 129 c-13 -5 -27 -7 -32 -4 -4 2 -15 -4 -24 -14 -10 -11 -13 -22 -8 -25 8 -5 95 23 107 36 11 11 -20 15 -43 7z"/> <path d="M1512 114 c-10 -20 -9 -28 2 -39 12 -12 16 -12 26 1 11 12 10 13 -5 7 -15 -5 -17 -3 -12 11 4 10 7 20 7 22 0 3 4 2 10 -1 6 -3 7 1 4 9 -9 23 -19 20 -32 -10z"/> <path d="M2598 103 c9 -22 21 -40 26 -40 5 -1 12 -5 15 -10 3 -4 14 -15 25 -23 15 -12 14 -5 -9 40 -32 65 -25 56 -52 64 l-23 7 18 -38z"/> <path d="M2660 99 c0 -18 30 -69 41 -69 6 0 8 -4 4 -9 -3 -5 -1 -12 5 -16 5 -3 10 0 10 7 0 9 3 9 10 -2 8 -12 12 -13 19 -1 6 10 13 11 29 2 11 -6 34 -11 51 -11 29 0 31 3 30 33 -1 21 -3 25 -6 12 -7 -29 -16 -36 -33 -25 -13 9 -13 11 0 20 17 11 10 13 -42 10 -27 -1 -39 4 -47 18 -12 22 -71 48 -71 31z"/> <path d="M1181 66 c-40 -21 -43 -24 -23 -30 13 -4 19 -12 15 -22 -3 -8 1 -14 9 -14 7 0 20 20 29 45 9 25 16 45 15 45 0 -1 -21 -11 -45 -24z"/> <path d="M2350 45 c-91 -18 -176 -35 -190 -38 -14 -2 14 -5 63 -6 75 -1 87 1 87 16 0 15 2 15 18 0 15 -13 19 -14 36 -1 26 19 55 18 63 -3 5 -14 8 -13 14 5 11 28 23 28 37 0 l11 -23 0 23 c1 15 7 22 20 22 21 0 45 -23 34 -33 -3 -4 1 -7 10 -7 21 0 21 -1 2 44 -8 20 -21 36 -28 35 -6 0 -86 -15 -177 -34z"/> <path d="M1710 49 c-14 -25 -9 -41 14 -45 14 -2 15 0 5 12 -6 8 -9 23 -6 34 7 26 1 26 -13 -1z"/> <path d="M1116 15 c-3 -8 -1 -15 4 -15 6 0 10 6 10 13 0 9 3 8 9 -2 5 -8 11 -9 15 -3 3 5 -1 13 -10 16 -21 8 -21 8 -28 -9z"/> </g> </svg> 